<svg width="62" height="72" viewBox="0 0 62 72" fill="none" xmlns="http://www.w3.org/2000/svg">
<path fill-rule="evenodd" clip-rule="evenodd" d="M14.4265 64.9382C9.1469 58.96 5.49316 50.1931 3.15057 42.594C0.668121 33.8271 -2.26886 17.7748 2.71352 9.16475C8.70985 -1.20563 24.8283 -0.909411 34.9329 1.12981C44.1459 3.16902 56.8903 8.43262 60.5615 17.7747C64.3726 27.8488 59.9846 41.1299 54.705 50.1931C46.4885 64.2062 28.7792 82.1583 14.4265 64.9382Z" fill="#A1BC51"/>
<path fill-rule="evenodd" clip-rule="evenodd" d="M46.3486 16.4151C46.3486 19.8138 45.4396 25.9314 42.6949 28.6678C41.9956 29.3301 41.104 30.0273 40.195 30.0273V16.4151H46.3486ZM8.76232 16.4151H14.916V30.0273C14.0069 30.0273 13.0979 29.3301 12.3986 28.6678C9.67139 25.9314 8.98959 19.8138 8.76232 16.4151ZM38.6041 64.7463V59.535C38.6041 59.3084 38.3769 59.0643 38.1496 59.0643H36.3315C36.0867 59.0643 35.8594 58.8553 35.8594 58.3847V57.4783C35.8594 57.2692 35.6322 57.0426 35.1776 57.0426H31.0694H24.0066H19.8984C19.4438 57.0426 19.2166 57.2692 19.2166 57.4783V58.3847C19.2166 58.8553 18.9893 59.0643 18.5348 59.0643H17.1537C16.7166 59.0643 16.4894 59.291 16.4894 59.535V64.7463C16.4894 64.9554 16.7166 65.1995 17.1537 65.1995H38.1146C38.3769 65.182 38.6041 64.9554 38.6041 64.7463ZM29.7233 19.3432V19.6047H29.933H36.3315L31.0869 22.7768H30.8596V23.0207L33.1322 28.4413L27.8876 25.0426H27.6779L22.4333 28.4413L24.4787 23.0207V22.7768L19.234 19.6047H25.615V19.3432L27.6604 13.9053L29.7233 19.3432ZM24.0241 54.2887C23.1151 54.2887 22.4333 54.9685 22.4333 55.6483C22.4333 55.8923 22.4333 55.8922 22.4333 56.1188H32.6952C32.6952 55.8748 32.6952 55.8749 32.6952 55.6483C32.6952 54.986 32.0134 54.2887 31.1043 54.2887H30.6498V46.1319H31.1043C32.0134 46.1319 32.6952 45.4522 32.6952 44.7725C32.6952 44.3193 32.6952 43.8661 32.2407 43.6395C31.7861 43.6395 31.3316 43.8661 30.8771 43.8661V41.8269C35.8944 40.6766 39.5307 36.6155 40.4397 31.6133C42.2579 31.3867 43.8662 30.707 45.2298 29.3301C50.0199 24.3279 49.7926 13.6961 49.7926 13.2255C49.7926 12.3192 49.1108 11.6395 48.429 11.6395H40.4397V8.46739C40.4397 8.01423 40.2125 7.56104 39.7579 7.56104H16.0523C15.5978 7.56104 15.1433 8.01423 15.1433 8.46739V11.6395H7.39872C6.50714 11.6395 5.80786 12.3192 5.80786 13.2255C5.80786 13.6961 5.80786 24.3454 10.3707 29.3301C11.7343 30.707 13.5524 31.3693 15.3705 31.6133C16.0523 36.6155 19.9333 40.6766 24.7234 41.8269V43.8661C24.0416 43.8661 23.5871 43.6395 22.8878 43.6395C22.678 43.8661 22.4333 44.3193 22.4333 44.7725C22.4333 45.4522 23.1151 46.1319 24.0241 46.1319H24.7059V54.2887H24.0241Z" fill="#7F973A"/>
<path fill-rule="evenodd" clip-rule="evenodd" d="M49.8275 21.1036C49.8275 24.5023 48.9185 30.6199 46.1738 33.3563C45.4745 34.0186 44.5829 34.7158 43.6739 34.7158V21.1036H49.8275ZM12.2237 21.1036H18.3774V34.7158C17.4683 34.7158 16.5593 34.036 15.86 33.3563C13.1328 30.6199 12.4685 24.5023 12.2237 21.1036ZM42.0655 69.4173V64.206C42.0655 63.962 41.8383 63.7355 41.611 63.7355H39.7929C39.5481 63.7355 39.3208 63.5263 39.3208 63.0557V62.1494C39.3208 61.9402 39.0936 61.7136 38.639 61.7136H34.5308H27.468H23.3598C22.9052 61.7136 22.678 61.9402 22.678 62.1494V63.0557C22.678 63.5263 22.4507 63.7355 21.9962 63.7355H20.6151C20.178 63.7355 19.9508 63.962 19.9508 64.206V69.4173C19.9508 69.6265 20.178 69.8705 20.6151 69.8705H41.576C41.8383 69.8705 42.0655 69.6265 42.0655 69.4173ZM33.2021 24.0317V24.2932H33.4119H39.8103L34.5657 27.4653H34.3385V27.6918L36.6111 33.1298L31.3665 29.7311H31.1567L25.9121 33.1298L27.9575 27.6918V27.4653L22.7304 24.2932H29.1113V24.0317L31.1567 18.6112L33.2021 24.0317ZM27.503 58.9772C26.5939 58.9772 25.9121 59.657 25.9121 60.3368C25.9121 60.5633 25.9121 60.5633 25.9121 60.8073H36.1741C36.1741 60.5633 36.1741 60.5633 36.1741 60.3368C36.1741 59.6744 35.4923 58.9772 34.5832 58.9772H34.1287V50.8204H34.5832C35.4923 50.8204 36.1741 50.1407 36.1741 49.4609C36.1741 49.0078 36.1741 48.5546 35.7196 48.328C35.265 48.328 34.8105 48.5546 34.356 48.5546V46.5154C39.3733 45.3825 43.0095 41.304 43.9186 36.3018C45.7367 36.0752 47.3451 35.3955 48.7087 34.0186C53.4988 29.0164 53.2715 18.3846 53.2715 17.914C53.2715 17.0077 52.5897 16.328 51.9079 16.328H43.9186V13.1559C43.9186 12.7027 43.6913 12.2495 43.2368 12.2495H19.5312C19.0767 12.2495 18.6221 12.7027 18.6221 13.1559V16.328H10.8776C9.98602 16.328 9.28674 17.0077 9.28674 17.914C9.28674 18.3846 9.28674 29.0338 13.8495 34.0186C15.2131 35.3955 17.0313 36.0578 18.8494 36.3018C19.5312 41.304 23.4122 45.3651 28.2023 46.5154V48.5546C27.503 48.5546 27.066 48.328 26.3667 48.328C26.1569 48.5546 25.9121 49.0078 25.9121 49.4609C25.9121 50.1407 26.5939 50.8204 27.503 50.8204H28.2023V58.9772H27.503Z" fill="white"/>
</svg>
