<svg width="62" height="72" viewBox="0 0 62 72" fill="none" xmlns="http://www.w3.org/2000/svg">
<path fill-rule="evenodd" clip-rule="evenodd" d="M14.4265 64.9382C9.1469 58.96 5.49316 50.1931 3.15057 42.594C0.668121 33.8271 -2.26886 17.7748 2.71352 9.16475C8.70985 -1.20563 24.8283 -0.909411 34.9329 1.12981C44.1459 3.16902 56.8903 8.43262 60.5615 17.7747C64.3726 27.8488 59.9846 41.1299 54.705 50.1931C46.4885 64.2062 28.7792 82.1583 14.4265 64.9382Z" fill="#A1BC51"/>
<path d="M44.7318 22.6908C46.1975 21.2251 47.1408 19.3685 47.4601 17.3194C47.6243 16.2631 47.2854 15.2248 46.529 14.4691C45.7734 13.7135 44.7334 13.3755 43.6804 13.5396C41.6321 13.8589 39.7747 14.8014 38.309 16.2672L33.776 20.8001L31.0623 20.2094C31.5254 19.5066 31.4482 18.5495 30.8307 17.9312C30.1238 17.2259 28.9758 17.2251 28.2689 17.9312L26.8982 19.3019L23.6823 18.6015L23.9066 18.3773C24.6126 17.6712 24.6118 16.5215 23.9066 15.8163C23.2249 15.1321 22.0313 15.1313 21.3456 15.8163L19.4768 17.685L12.8208 16.2355C12.2976 16.1209 11.7573 16.2802 11.3762 16.6596L10.0364 17.9994C9.68458 18.3513 9.52208 18.8363 9.59195 19.3295C9.66183 19.8227 9.95189 20.2436 10.3882 20.4849L26.0199 29.1201L18.1069 37.7781L10.0705 38.2055L8.82576 39.4494C8.55926 39.7168 8.44714 40.0978 8.52595 40.4675C8.60558 40.8372 8.86314 41.1378 9.21576 41.2719L16.8232 44.1774L19.7295 51.7856C19.8644 52.1383 20.165 52.3966 20.5347 52.4754C20.6127 52.4917 20.6915 52.4998 20.7687 52.4998C21.0596 52.4998 21.3407 52.3853 21.5528 52.174L22.7959 50.9309L23.2233 42.8936L31.8813 34.9807L40.5108 50.6067C40.7513 51.043 41.1722 51.3331 41.6654 51.403C42.1586 51.4712 42.6436 51.3103 42.9955 50.9585L44.3361 49.6187C44.7155 49.2393 44.8739 48.6998 44.7602 48.1749L43.3131 41.5254L45.1843 39.655C45.5264 39.313 45.7149 38.8579 45.7149 38.3737C45.7149 37.8894 45.5264 37.4344 45.1843 37.0924C44.4775 36.3871 43.3294 36.3863 42.6225 37.0924L42.3974 37.3174L41.6979 34.1016L43.0694 32.7301C43.4114 32.388 43.5999 31.933 43.5999 31.4488C43.5999 30.9645 43.4114 30.5095 43.0702 30.1683C42.473 29.5711 41.4874 29.4955 40.792 29.9399L40.2004 27.2221L44.7334 22.6892L44.7318 22.6908Z" fill="#7F973A"/>
<path d="M47.7318 25.6908C49.1975 24.2251 50.1408 22.3685 50.4601 20.3194C50.6243 19.2631 50.2854 18.2248 49.529 17.4691C48.7734 16.7135 47.7334 16.3755 46.6804 16.5396C44.6321 16.8589 42.7747 17.8014 41.309 19.2672L36.776 23.8001L34.0623 23.2094C34.5254 22.5066 34.4482 21.5495 33.8307 20.9312C33.1238 20.2259 31.9758 20.2251 31.2689 20.9312L29.8982 22.3019L26.6823 21.6015L26.9066 21.3773C27.6126 20.6712 27.6118 19.5215 26.9066 18.8163C26.2249 18.1321 25.0313 18.1313 24.3456 18.8163L22.4768 20.685L15.8208 19.2355C15.2976 19.1209 14.7573 19.2802 14.3762 19.6596L13.0364 20.9994C12.6846 21.3513 12.5221 21.8363 12.592 22.3295C12.6618 22.8227 12.9519 23.2436 13.3882 23.4849L29.0199 32.1201L21.1069 40.7781L13.0705 41.2055L11.8258 42.4494C11.5593 42.7168 11.4471 43.0978 11.526 43.4675C11.6056 43.8372 11.8631 44.1378 12.2158 44.2719L19.8232 47.1774L22.7295 54.7856C22.8644 55.1383 23.165 55.3966 23.5347 55.4754C23.6127 55.4917 23.6915 55.4998 23.7687 55.4998C24.0596 55.4998 24.3407 55.3853 24.5528 55.174L25.7959 53.9309L26.2233 45.8936L34.8813 37.9807L43.5108 53.6067C43.7513 54.043 44.1722 54.3331 44.6654 54.403C45.1586 54.4712 45.6436 54.3103 45.9955 53.9585L47.3361 52.6187C47.7155 52.2393 47.8739 51.6998 47.7602 51.1749L46.3131 44.5254L48.1843 42.655C48.5264 42.313 48.7149 41.8579 48.7149 41.3737C48.7149 40.8894 48.5264 40.4344 48.1843 40.0924C47.4775 39.3871 46.3294 39.3863 45.6225 40.0924L45.3974 40.3174L44.6979 37.1016L46.0694 35.7301C46.4114 35.388 46.5999 34.933 46.5999 34.4488C46.5999 33.9645 46.4114 33.5095 46.0702 33.1683C45.473 32.5711 44.4874 32.4955 43.792 32.9399L43.2004 30.2221L47.7334 25.6892L47.7318 25.6908Z" fill="white"/>
</svg>
