<svg width="72" height="62" viewBox="0 0 72 62" fill="none" xmlns="http://www.w3.org/2000/svg">
<path fill-rule="evenodd" clip-rule="evenodd" d="M5.87193 55.8866C0.468249 51.6959 -0.358579 44.741 0.113874 38.6777C0.674911 35.8096 0.719221 35.2895 1.51649 31.9755C4.61695 20.3246 13.9331 3.57639 26.2759 0.663657C37.8658 -2.17477 48.7617 4.55718 57.3397 12.0173C57.3397 12.0173 57.3397 12.0174 57.5907 12.1957C65.6815 19.9382 74.658 32.986 71.2623 44.9639C67.6746 56.8675 48.6731 60.7759 38.4121 61.6081C28.7416 62.6186 13.4016 61.9945 5.87193 55.8866Z" fill="#A1BC51"/>
<g clip-path="url(#clip0_193_1085)">
<path d="M46.8202 20.3218H14.2174C13.0757 20.3218 12.1502 21.2473 12.1502 22.389V22.8579C10.8603 22.2168 9.77204 21.9456 9.77204 21.9456C8.73567 20.94 7 21.6744 7 23.1183V33.4994C7 34.9434 8.73567 35.6776 9.77195 34.6722C9.77195 34.6722 10.8603 34.401 12.1501 33.7598V46.111C12.1501 47.2526 13.0756 48.1782 14.2173 48.1782H46.8202C47.9618 48.1782 48.8873 47.2526 48.8873 46.111V22.3891C48.8873 21.2473 47.9618 20.3218 46.8202 20.3218Z" fill="#7F973A"/>
<path d="M54.4446 15.9022L52.9387 16.6348C52.3446 15.0799 50.8398 13.9751 49.0761 13.9751H35.2763C32.9929 13.9751 31.1419 15.8261 31.1419 18.1095V21.7691C31.1419 24.0524 32.9929 25.9034 35.2763 25.9034H49.0762C50.8399 25.9034 52.3447 24.7986 52.9387 23.2438L54.4447 23.9764C55.1442 24.3167 56.032 23.9058 56.032 23.2418V16.6366C56.0319 15.9727 55.1441 15.5619 54.4446 15.9022ZM41.9386 48.2909H21.6116C21.0091 48.2909 20.5208 47.8025 20.5208 47.2001V37.8394C20.5208 37.237 21.0091 36.7486 21.6116 36.7486H41.9386C42.5411 36.7486 43.0295 37.237 43.0295 37.8394V47.2001C43.0295 47.8025 42.5411 48.2909 41.9386 48.2909Z" fill="#7F973A"/>
<path d="M22.2605 34.4727C23.2214 34.4727 24.0003 33.6938 24.0003 32.7329C24.0003 31.7721 23.2214 30.9932 22.2605 30.9932C21.2997 30.9932 20.5208 31.7721 20.5208 32.7329C20.5208 33.6938 21.2997 34.4727 22.2605 34.4727Z" fill="#7F973A"/>
<path d="M30.9895 34.1764H28.0114C27.4133 34.1764 26.9286 33.6916 26.9286 33.0937V32.3723C26.9286 31.7743 27.4134 31.2896 28.0114 31.2896H30.9895C31.5875 31.2896 32.0722 31.7744 32.0722 32.3723V33.0937C32.0722 33.6916 31.5874 34.1764 30.9895 34.1764Z" fill="#7F973A"/>
</g>
<g clip-path="url(#clip1_193_1085)">
<path d="M51.8202 23.3218H19.2174C18.0757 23.3218 17.1502 24.2473 17.1502 25.389V25.8579C15.8603 25.2168 14.772 24.9456 14.772 24.9456C13.7357 23.94 12 24.6744 12 26.1183V36.4994C12 37.9434 13.7357 38.6776 14.7719 37.6722C14.7719 37.6722 15.8603 37.401 17.1501 36.7598V49.111C17.1501 50.2526 18.0756 51.1782 19.2173 51.1782H51.8202C52.9618 51.1782 53.8873 50.2526 53.8873 49.111V25.3891C53.8873 24.2473 52.9618 23.3218 51.8202 23.3218Z" fill="white"/>
<path d="M59.4446 18.9022L57.9387 19.6348C57.3446 18.0799 55.8398 16.9751 54.0761 16.9751H40.2763C37.9929 16.9751 36.1419 18.8261 36.1419 21.1095V24.7691C36.1419 27.0524 37.9929 28.9034 40.2763 28.9034H54.0762C55.8399 28.9034 57.3447 27.7986 57.9387 26.2438L59.4447 26.9764C60.1442 27.3167 61.032 26.9058 61.032 26.2418V19.6366C61.0319 18.9727 60.1441 18.5619 59.4446 18.9022ZM46.9386 51.2909H26.6116C26.0091 51.2909 25.5208 50.8025 25.5208 50.2001V40.8394C25.5208 40.237 26.0091 39.7486 26.6116 39.7486H46.9386C47.5411 39.7486 48.0295 40.237 48.0295 40.8394V50.2001C48.0295 50.8025 47.5411 51.2909 46.9386 51.2909Z" fill="#E1E1E1"/>
<path d="M27.2605 37.4727C28.2214 37.4727 29.0003 36.6938 29.0003 35.7329C29.0003 34.7721 28.2214 33.9932 27.2605 33.9932C26.2997 33.9932 25.5208 34.7721 25.5208 35.7329C25.5208 36.6938 26.2997 37.4727 27.2605 37.4727Z" fill="#A1BC51"/>
<path d="M35.9895 37.1764H33.0114C32.4133 37.1764 31.9286 36.6916 31.9286 36.0937V35.3723C31.9286 34.7743 32.4134 34.2896 33.0114 34.2896H35.9895C36.5875 34.2896 37.0722 34.7744 37.0722 35.3723V36.0937C37.0722 36.6916 36.5874 37.1764 35.9895 37.1764Z" fill="#8F9799"/>
</g>
<defs>
<clipPath id="clip0_193_1085">
<rect width="49" height="49" fill="white" transform="translate(7 4)"/>
</clipPath>
<clipPath id="clip1_193_1085">
<rect width="49" height="49" fill="white" transform="translate(12 7)"/>
</clipPath>
</defs>
</svg>
