<svg width="72" height="67" viewBox="0 0 72 67" fill="none" xmlns="http://www.w3.org/2000/svg">
<path fill-rule="evenodd" clip-rule="evenodd" d="M5.87184 55.8809C0.468165 51.6906 -0.358573 44.7365 0.113879 38.674C0.660153 35.8062 0.719227 35.2862 1.51649 31.9726C4.61696 20.3231 13.9331 3.57686 26.2759 0.664477C37.8657 -2.17361 48.7617 4.54269 57.3397 12.0317C57.3397 12.0317 57.3397 12.0317 57.5907 12.21C65.6814 19.9516 74.658 32.9979 71.2623 44.9743C67.6746 56.8764 48.6731 60.7844 38.4121 61.6165C28.7563 62.612 13.4163 61.988 5.87184 55.8809Z" fill="#A1BC51"/>
<path d="M55.4092 56.1285C53.3069 56.1285 51.5967 54.4183 51.5967 52.316C51.5967 50.7724 52.5187 49.4401 53.8411 48.841C53.7522 48.7907 53.6588 48.7382 53.5608 48.6841C53.2729 48.5248 53.1686 48.1624 53.3279 47.8746C53.4872 47.5867 53.8499 47.4822 54.1375 47.6417C54.8698 48.0467 55.3637 48.3572 55.5955 48.508C57.6115 48.6055 59.2217 50.2763 59.2217 52.316C59.2217 54.4183 57.5114 56.1285 55.4092 56.1285ZM55.4014 49.6949C53.9597 49.6992 52.7881 50.8735 52.7881 52.316C52.7881 53.7613 53.9639 54.9371 55.4092 54.9371C56.8545 54.9371 58.0303 53.7613 58.0303 52.316C58.0303 50.8731 56.8583 49.6986 55.4162 49.6949C55.4113 49.6949 55.4066 49.6948 55.4014 49.6949ZM13.5908 56.1285C11.4886 56.1285 9.77832 54.4183 9.77832 52.316C9.77832 50.2763 11.3886 48.6055 13.4046 48.508C13.6432 48.3528 14.1598 48.0285 14.9283 47.6056C15.2167 47.4473 15.5788 47.5522 15.7374 47.8404C15.8961 48.1286 15.791 48.4908 15.5027 48.6495C15.3816 48.7161 15.2671 48.7802 15.1593 48.8413C16.4814 49.4403 17.4033 50.7726 17.4033 52.316C17.4033 54.4183 15.6931 56.1285 13.5908 56.1285ZM13.5908 49.6949C12.1455 49.6949 10.9697 50.8707 10.9697 52.316C10.9697 53.7613 12.1455 54.9371 13.5908 54.9371C15.0361 54.9371 16.2119 53.7613 16.2119 52.316C16.2119 50.8707 15.0361 49.6949 13.5908 49.6949ZM51.1073 47.3942C51.0258 47.3942 50.9431 47.3774 50.864 47.342C50.1774 47.0343 49.4644 46.7388 48.745 46.4642C48.4377 46.3468 48.2836 46.0025 48.401 45.6953C48.5183 45.3879 48.8625 45.2336 49.1699 45.3512C49.9104 45.6339 50.6443 45.9379 51.3512 46.2549C51.6516 46.3895 51.7858 46.7419 51.6512 47.042C51.552 47.263 51.3348 47.3942 51.1073 47.3942ZM18.4061 47.1689C18.1756 47.1689 17.9561 47.0343 17.8589 46.8091C17.7285 46.5071 17.8676 46.1565 18.1698 46.0261C18.8886 45.7159 19.6265 45.4219 20.3624 45.1527C20.6717 45.0394 21.0135 45.1986 21.1266 45.5075C21.2396 45.8165 21.0807 46.1586 20.7718 46.2715C20.0569 46.5331 19.3403 46.8186 18.6419 47.1201C18.5649 47.1532 18.4849 47.1689 18.4061 47.1689ZM24.2912 45.1374C24.0273 45.1374 23.786 44.9608 23.7155 44.6934C23.6316 44.3753 23.8215 44.0495 24.1397 43.9656C25.0332 43.7299 25.9459 43.5215 26.8526 43.3462C27.1752 43.2841 27.4881 43.4948 27.5506 43.8178C27.6131 44.1409 27.402 44.4535 27.079 44.5159C26.1983 44.6863 25.3116 44.8888 24.4436 45.1177C24.3926 45.1311 24.3415 45.1374 24.2912 45.1374ZM44.671 45.1277C44.621 45.1277 44.5701 45.1214 44.5195 45.108C43.8363 44.9287 43.1444 44.7658 42.4625 44.6241C42.1405 44.557 41.9337 44.2416 42.0006 43.9195C42.0677 43.5975 42.382 43.3906 42.7052 43.4576C43.407 43.6036 44.1191 43.7711 44.822 43.9557C45.1402 44.0392 45.3305 44.3649 45.2468 44.683C45.1767 44.9506 44.9353 45.1277 44.671 45.1277ZM38.8181 44.0372C38.7961 44.0372 38.7741 44.036 38.7517 44.0336C38.0443 43.955 37.3245 43.8952 36.6115 43.8557C36.2831 43.8376 36.0316 43.5566 36.0497 43.228C36.0678 42.8994 36.3486 42.6493 36.6774 42.6661C37.412 42.7067 38.1543 42.7683 38.8832 42.8493C39.2102 42.8858 39.4459 43.1802 39.4095 43.5071C39.3757 43.8119 39.1178 44.0372 38.8181 44.0372ZM30.2084 44.0344C29.9086 44.0344 29.6505 43.8087 29.617 43.5038C29.581 43.1769 29.8171 42.8826 30.1441 42.8466C31.0335 42.7489 31.9343 42.68 32.8215 42.642C33.1516 42.6236 33.4281 42.8829 33.4422 43.2117C33.4562 43.5404 33.2011 43.8182 32.8724 43.8323C32.0114 43.8692 31.1373 43.9359 30.2742 44.0307C30.252 44.0332 30.2301 44.0344 30.2084 44.0344Z" fill="#7F973A"/>
<path d="M56.4092 57.1285C54.3069 57.1285 52.5967 55.4183 52.5967 53.316C52.5967 51.7724 53.5187 50.4401 54.8411 49.841C54.7522 49.7907 54.6588 49.7382 54.5608 49.6841C54.2729 49.5248 54.1686 49.1624 54.3279 48.8746C54.4872 48.5867 54.8499 48.4822 55.1375 48.6417C55.8698 49.0467 56.3637 49.3572 56.5955 49.508C58.6115 49.6055 60.2217 51.2763 60.2217 53.316C60.2217 55.4183 58.5114 57.1285 56.4092 57.1285ZM56.4014 50.6949C54.9597 50.6992 53.7881 51.8735 53.7881 53.316C53.7881 54.7613 54.9639 55.9371 56.4092 55.9371C57.8545 55.9371 59.0303 54.7613 59.0303 53.316C59.0303 51.8731 57.8583 50.6986 56.4162 50.6949C56.4113 50.6949 56.4066 50.6948 56.4014 50.6949ZM14.5908 57.1285C12.4886 57.1285 10.7783 55.4183 10.7783 53.316C10.7783 51.2763 12.3886 49.6055 14.4046 49.508C14.6432 49.3528 15.1598 49.0285 15.9283 48.6056C16.2167 48.4473 16.5788 48.5522 16.7374 48.8404C16.8961 49.1286 16.791 49.4908 16.5027 49.6495C16.3816 49.7161 16.2671 49.7802 16.1593 49.8413C17.4814 50.4403 18.4033 51.7726 18.4033 53.316C18.4033 55.4183 16.6931 57.1285 14.5908 57.1285ZM14.5908 50.6949C13.1455 50.6949 11.9697 51.8707 11.9697 53.316C11.9697 54.7613 13.1455 55.9371 14.5908 55.9371C16.0361 55.9371 17.2119 54.7613 17.2119 53.316C17.2119 51.8707 16.0361 50.6949 14.5908 50.6949ZM52.1073 48.3942C52.0258 48.3942 51.9431 48.3774 51.864 48.342C51.1774 48.0343 50.4644 47.7388 49.745 47.4642C49.4377 47.3468 49.2836 47.0025 49.401 46.6953C49.5183 46.3879 49.8625 46.2336 50.1699 46.3512C50.9104 46.6339 51.6443 46.9379 52.3512 47.2549C52.6516 47.3895 52.7858 47.7419 52.6512 48.042C52.552 48.263 52.3348 48.3942 52.1073 48.3942ZM19.4061 48.1689C19.1756 48.1689 18.9561 48.0343 18.8589 47.8091C18.7285 47.5071 18.8676 47.1565 19.1698 47.0261C19.8886 46.7159 20.6265 46.4219 21.3624 46.1527C21.6717 46.0394 22.0135 46.1986 22.1266 46.5075C22.2396 46.8165 22.0807 47.1586 21.7718 47.2715C21.0569 47.5331 20.3403 47.8186 19.6419 48.1201C19.5649 48.1532 19.4849 48.1689 19.4061 48.1689ZM25.2912 46.1374C25.0273 46.1374 24.786 45.9608 24.7155 45.6934C24.6316 45.3753 24.8215 45.0495 25.1397 44.9656C26.0332 44.7299 26.9459 44.5215 27.8526 44.3462C28.1752 44.2841 28.4881 44.4948 28.5506 44.8178C28.6131 45.1409 28.402 45.4535 28.079 45.5159C27.1983 45.6863 26.3116 45.8888 25.4436 46.1177C25.3926 46.1311 25.3415 46.1374 25.2912 46.1374ZM45.671 46.1277C45.621 46.1277 45.5701 46.1214 45.5195 46.108C44.8363 45.9287 44.1444 45.7658 43.4625 45.6241C43.1405 45.557 42.9337 45.2416 43.0006 44.9195C43.0677 44.5975 43.382 44.3906 43.7052 44.4576C44.407 44.6036 45.1191 44.7711 45.822 44.9557C46.1402 45.0392 46.3305 45.3649 46.2468 45.683C46.1767 45.9506 45.9353 46.1277 45.671 46.1277ZM39.8181 45.0372C39.7961 45.0372 39.7741 45.036 39.7517 45.0336C39.0443 44.955 38.3245 44.8952 37.6115 44.8557C37.2831 44.8376 37.0316 44.5566 37.0497 44.228C37.0678 43.8994 37.3486 43.6493 37.6774 43.6661C38.412 43.7067 39.1543 43.7683 39.8832 43.8493C40.2102 43.8858 40.4459 44.1802 40.4095 44.5071C40.3757 44.8119 40.1178 45.0372 39.8181 45.0372ZM31.2084 45.0344C30.9086 45.0344 30.6505 44.8087 30.617 44.5038C30.581 44.1769 30.8171 43.8826 31.1441 43.8466C32.0335 43.7489 32.9343 43.68 33.8215 43.642C34.1516 43.6236 34.4281 43.8829 34.4422 44.2117C34.4562 44.5404 34.2011 44.8182 33.8724 44.8323C33.0114 44.8692 32.1373 44.9359 31.2742 45.0307C31.252 45.0332 31.2301 45.0344 31.2084 45.0344Z" fill="white"/>
<g clip-path="url(#clip0_193_1115)">
<path d="M49.9827 34.3623V18.0692C49.9827 17.4027 49.4424 16.8623 48.7758 16.8623H22.2241C21.5576 16.8623 21.0172 17.4027 21.0172 18.0692V34.3623H49.9827Z" fill="#EFEFEF"/>
<path d="M30.6724 14.4482H40.3275C40.9941 14.4482 41.5344 14.9886 41.5344 15.6551V34.362H29.4655V15.6551C29.4655 14.9886 30.0058 14.4482 30.6724 14.4482Z" fill="white"/>
<path d="M36.0587 6.3546L36.644 7.60253L38.0157 7.81012C38.2443 7.84512 38.4341 8.00494 38.5076 8.2242C38.5811 8.44347 38.5258 8.68541 38.3645 8.85107L37.3513 9.889L37.5842 11.3143C37.6215 11.5469 37.5232 11.7803 37.3309 11.9162C37.1386 12.0521 36.8858 12.0668 36.679 11.954L35.4999 11.3053L34.3238 11.9558C34.1171 12.0686 33.8642 12.0539 33.6719 11.918C33.4796 11.7821 33.3813 11.5487 33.4186 11.3162L33.6515 9.89081L32.6384 8.85288C32.4761 8.68773 32.4198 8.44565 32.4927 8.22587C32.5656 8.00609 32.7553 7.84557 32.9841 7.81012L34.3534 7.60253L34.9387 6.3546C35.0399 6.13657 35.2583 5.99707 35.4987 5.99707C35.7391 5.99707 35.9576 6.13657 36.0587 6.3546Z" fill="white"/>
<path d="M27.8524 7.52613L28.3756 8.64915L29.6006 8.83803C29.8054 8.87108 29.9747 9.01525 30.04 9.21207C30.1053 9.40889 30.0558 9.6257 29.9114 9.77458L29.0068 10.7069L29.215 11.9892C29.2504 12.1982 29.1631 12.409 28.9902 12.5317C28.8174 12.6543 28.5896 12.6673 28.404 12.5649L27.3534 11.9796L26.3028 12.5649C26.1172 12.6673 25.8894 12.6543 25.7166 12.5317C25.5437 12.409 25.4564 12.1982 25.4918 11.9892L25.6999 10.7069L24.7948 9.77217C24.6508 9.62317 24.6015 9.40648 24.6669 9.20985C24.7323 9.01322 24.9016 8.86924 25.1062 8.83622L26.3312 8.64734L26.8543 7.52432C26.9446 7.3299 27.1396 7.20567 27.354 7.20606C27.5683 7.20644 27.7629 7.33138 27.8524 7.52613Z" fill="white"/>
<path d="M20.8572 9.90499L21.3218 10.9031L22.4111 11.069C22.5933 11.0983 22.7441 11.2266 22.8022 11.4018C22.8603 11.577 22.8161 11.77 22.6874 11.9024L21.8836 12.734L22.0683 13.8739C22.0998 14.0595 22.0222 14.2469 21.8687 14.3559C21.7151 14.465 21.5127 14.4765 21.3478 14.3856L20.4136 13.8654L19.4795 14.388C19.3146 14.4789 19.1121 14.4674 18.9586 14.3583C18.805 14.2493 18.7275 14.062 18.759 13.8763L18.9436 12.7364L18.1398 11.9036C18.0105 11.7713 17.9658 11.5778 18.024 11.4022C18.0822 11.2265 18.2335 11.098 18.4162 11.069L19.5085 10.9031L19.9731 9.90499C20.0535 9.73353 20.2258 9.62402 20.4151 9.62402C20.6045 9.62402 20.7768 9.73353 20.8572 9.90499Z" fill="white"/>
<path d="M43.1474 7.52613L42.6242 8.64915L41.3992 8.83803C41.1945 8.87108 41.0252 9.01525 40.9598 9.21207C40.8945 9.40889 40.9441 9.6257 41.0885 9.77458L41.993 10.7069L41.7848 11.9892C41.7494 12.1982 41.8368 12.409 42.0096 12.5317C42.1825 12.6543 42.4103 12.6673 42.5959 12.5649L43.6465 11.9796L44.6971 12.5649C44.8827 12.6673 45.1105 12.6543 45.2833 12.5317C45.4561 12.409 45.5435 12.1982 45.5081 11.9892L45.2999 10.7069L46.2051 9.77217C46.3491 9.62317 46.3984 9.40648 46.333 9.20985C46.2676 9.01322 46.0983 8.86924 45.8937 8.83622L44.6687 8.64734L44.1455 7.52432C44.0553 7.3299 43.8602 7.20567 43.6459 7.20606C43.4315 7.20644 43.237 7.33138 43.1474 7.52613Z" fill="white"/>
<path d="M50.1426 9.90483L49.681 10.9029L48.5948 11.0701C48.4125 11.0994 48.2617 11.2277 48.2036 11.4029C48.1455 11.5781 48.1898 11.7711 48.3184 11.9035L49.1222 12.7338L48.9375 13.8737C48.906 14.0594 48.9836 14.2467 49.1371 14.3558C49.2907 14.4648 49.4931 14.4763 49.6581 14.3854L50.5862 13.8653L51.5203 14.3854C51.6852 14.4763 51.8876 14.4648 52.0412 14.3558C52.1947 14.2467 52.2723 14.0594 52.2408 13.8737L52.0562 12.7338L52.8599 11.9035C52.9893 11.7711 53.034 11.5777 52.9758 11.402C52.9176 11.2264 52.7663 11.0979 52.5836 11.0689L51.4974 10.9017L51.0327 9.90362C50.9536 9.72872 50.7792 9.61644 50.5873 9.6167C50.3953 9.61696 50.2213 9.72971 50.1426 9.90483Z" fill="white"/>
<path d="M52.3966 33.7588H18.6034C18.2702 33.7588 18 34.029 18 34.3622V40.3967C18 40.73 18.2702 41.0002 18.6034 41.0002H52.3966C52.7298 41.0002 53 40.73 53 40.3967V34.3622C53 34.029 52.7298 33.7588 52.3966 33.7588Z" fill="white"/>
<path d="M21.6206 36.7759H25.2413V41H21.6206V36.7759Z" fill="#656565"/>
<path d="M35.5 36.1724H38.5172V40.9999H35.5V36.1724Z" fill="#656565"/>
<path d="M32.4827 36.1724H35.4999V40.9999H32.4827V36.1724Z" fill="#A1BC51"/>
<path d="M39.7241 36.7757H31.2758C30.9425 36.7757 30.6724 36.5056 30.6724 36.1723C30.6724 35.839 30.9425 35.5688 31.2758 35.5688H39.7241C40.0574 35.5688 40.3275 35.839 40.3275 36.1723C40.3275 36.5056 40.0574 36.7757 39.7241 36.7757Z" fill="#EFEFEF"/>
<path d="M25.8447 37.3793H21.0171C20.6839 37.3793 20.4137 37.1091 20.4137 36.7758C20.4137 36.4425 20.6839 36.1724 21.0171 36.1724H25.8447C26.178 36.1724 26.4482 36.4425 26.4482 36.7758C26.4482 37.1091 26.178 37.3793 25.8447 37.3793Z" fill="#EFEFEF"/>
<path d="M45.7585 36.7759H49.3792V41H45.7585V36.7759Z" fill="#656565"/>
<path d="M49.9827 37.3793H45.1551C44.8218 37.3793 44.5516 37.1091 44.5516 36.7758C44.5516 36.4425 44.8218 36.1724 45.1551 36.1724H49.9827C50.3159 36.1724 50.5861 36.4425 50.5861 36.7758C50.5861 37.1091 50.3159 37.3793 49.9827 37.3793Z" fill="#EFEFEF"/>
<path d="M33.6896 17.4653H32.4827C32.1494 17.4653 31.8793 17.7355 31.8793 18.0688V19.2757C31.8793 19.609 32.1494 19.8791 32.4827 19.8791H33.6896C34.0229 19.8791 34.2931 19.609 34.2931 19.2757V18.0688C34.2931 17.7355 34.0229 17.4653 33.6896 17.4653Z" fill="#A1BC51"/>
<path d="M38.5173 17.4653H37.3104C36.9771 17.4653 36.7069 17.7355 36.7069 18.0688V19.2757C36.7069 19.609 36.9771 19.8791 37.3104 19.8791H38.5173C38.8505 19.8791 39.1207 19.609 39.1207 19.2757V18.0688C39.1207 17.7355 38.8505 17.4653 38.5173 17.4653Z" fill="#A1BC51"/>
<path d="M33.6896 22.8965H32.4827C32.1494 22.8965 31.8793 23.1667 31.8793 23.4999V24.7068C31.8793 25.0401 32.1494 25.3103 32.4827 25.3103H33.6896C34.0229 25.3103 34.2931 25.0401 34.2931 24.7068V23.4999C34.2931 23.1667 34.0229 22.8965 33.6896 22.8965Z" fill="#A1BC51"/>
<path d="M38.5173 22.8965H37.3104C36.9771 22.8965 36.7069 23.1667 36.7069 23.4999V24.7068C36.7069 25.0401 36.9771 25.3103 37.3104 25.3103H38.5173C38.8505 25.3103 39.1207 25.0401 39.1207 24.7068V23.4999C39.1207 23.1667 38.8505 22.8965 38.5173 22.8965Z" fill="#A1BC51"/>
<path d="M33.6896 28.3276H32.4827C32.1494 28.3276 31.8793 28.5978 31.8793 28.9311V30.138C31.8793 30.4713 32.1494 30.7414 32.4827 30.7414H33.6896C34.0229 30.7414 34.2931 30.4713 34.2931 30.138V28.9311C34.2931 28.5978 34.0229 28.3276 33.6896 28.3276Z" fill="#A1BC51"/>
<path d="M26.4483 19.2759H24.0345C23.7012 19.2759 23.431 19.5461 23.431 19.8793V21.0862C23.431 21.4195 23.7012 21.6897 24.0345 21.6897H26.4483C26.7815 21.6897 27.0517 21.4195 27.0517 21.0862V19.8793C27.0517 19.5461 26.7815 19.2759 26.4483 19.2759Z" fill="#A1BC51"/>
<path d="M26.4483 24.103H24.0345C23.7012 24.103 23.431 24.3732 23.431 24.7065V25.9134C23.431 26.2466 23.7012 26.5168 24.0345 26.5168H26.4483C26.7815 26.5168 27.0517 26.2466 27.0517 25.9134V24.7065C27.0517 24.3732 26.7815 24.103 26.4483 24.103Z" fill="#A1BC51"/>
<path d="M26.4483 28.9307H24.0345C23.7012 28.9307 23.431 29.2008 23.431 29.5341V30.741C23.431 31.0743 23.7012 31.3445 24.0345 31.3445H26.4483C26.7815 31.3445 27.0517 31.0743 27.0517 30.741V29.5341C27.0517 29.2008 26.7815 28.9307 26.4483 28.9307Z" fill="#A1BC51"/>
<path d="M44.5517 21.6895H46.9655C47.2988 21.6895 47.569 21.4193 47.569 21.086V19.8791C47.569 19.5458 47.2988 19.2757 46.9655 19.2757H44.5517C44.2185 19.2757 43.9483 19.5458 43.9483 19.8791V21.086C43.9483 21.4193 44.2185 21.6895 44.5517 21.6895Z" fill="#A1BC51"/>
<path d="M44.5517 26.5171H46.9655C47.2988 26.5171 47.569 26.2469 47.569 25.9136V24.7067C47.569 24.3735 47.2988 24.1033 46.9655 24.1033H44.5517C44.2185 24.1033 43.9483 24.3735 43.9483 24.7067V25.9136C43.9483 26.2469 44.2185 26.5171 44.5517 26.5171Z" fill="#A1BC51"/>
<path d="M44.5517 31.3447H46.9655C47.2988 31.3447 47.569 31.0746 47.569 30.7413V29.5344C47.569 29.2011 47.2988 28.9309 46.9655 28.9309H44.5517C44.2185 28.9309 43.9483 29.2011 43.9483 29.5344V30.7413C43.9483 31.0746 44.2185 31.3447 44.5517 31.3447Z" fill="#A1BC51"/>
<path d="M38.5173 28.3276H37.3104C36.9771 28.3276 36.7069 28.5978 36.7069 28.9311V30.138C36.7069 30.4713 36.9771 30.7414 37.3104 30.7414H38.5173C38.8505 30.7414 39.1207 30.4713 39.1207 30.138V28.9311C39.1207 28.5978 38.8505 28.3276 38.5173 28.3276Z" fill="#A1BC51"/>
</g>
<defs>
<clipPath id="clip0_193_1115">
<rect width="35" height="35" fill="white" transform="translate(18 6)"/>
</clipPath>
</defs>
</svg>
