<svg width="166" height="44" viewBox="0 0 166 44" fill="none" xmlns="http://www.w3.org/2000/svg">
<path d="M47.2735 14.4258H48.2897L54.9153 29.047H53.7598L51.9481 24.9813H43.5514L41.7454 29.047H40.6479L47.2735 14.4258ZM51.5009 24.0093L47.7613 15.6052L43.9985 24.0093H51.5009Z" fill="#F79444"/>
<path d="M62.2551 29.2963C61.5118 29.2963 60.815 29.1481 60.1704 28.8518C59.5259 28.5554 58.9684 28.1584 58.4981 27.6605C58.0277 27.1627 57.6561 26.5818 57.389 25.9181C57.1218 25.2543 56.9883 24.549 56.9883 23.8022V23.7607C56.9883 23.014 57.1218 22.3087 57.389 21.6449C57.6561 20.9811 58.0219 20.3943 58.4981 19.8787C58.9684 19.369 59.5259 18.9601 60.1704 18.6637C60.815 18.3674 61.506 18.2192 62.2551 18.2192C62.7429 18.2192 63.1842 18.2726 63.5848 18.3793C63.9855 18.4859 64.3513 18.6282 64.694 18.8119C65.0307 18.9956 65.3385 19.2031 65.6172 19.4401C65.896 19.6772 66.1573 19.9261 66.4012 20.1869L65.6869 20.9337C65.2398 20.4655 64.7462 20.0565 64.2062 19.7068C63.6661 19.3631 63.01 19.1853 62.2319 19.1853C61.6337 19.1853 61.0821 19.3038 60.5769 19.535C60.0659 19.772 59.6304 20.0921 59.2588 20.4951C58.8871 20.904 58.591 21.3782 58.3761 21.9294C58.1613 22.4806 58.0509 23.0732 58.0509 23.7074V23.7489C58.0509 24.383 58.1613 24.9757 58.3877 25.5328C58.6084 26.0899 58.9162 26.5759 59.2994 26.9908C59.6827 27.4057 60.1356 27.7257 60.6524 27.9628C61.1692 28.1998 61.7209 28.3124 62.319 28.3124C63.0506 28.3124 63.7068 28.1406 64.2817 27.8028C64.8565 27.4649 65.3617 27.0441 65.7973 26.5463L66.4883 27.1686C65.9598 27.779 65.3617 28.2828 64.6881 28.6799C64.0087 29.1007 63.2016 29.2963 62.2551 29.2963Z" fill="#F79444"/>
<path d="M72.7599 29.237C72.3534 29.237 71.976 29.1837 71.6217 29.0711C71.2675 28.9585 70.9598 28.7866 70.6984 28.5436C70.4371 28.3006 70.2281 27.9983 70.0771 27.6309C69.9261 27.2634 69.8565 26.8308 69.8565 26.3329V19.4046H68.3467V18.4681H69.8507V15.084H70.8436V18.4681H74.4845V19.4046H70.8436V26.2144C70.8436 26.973 71.0352 27.5064 71.4243 27.8087C71.8134 28.1109 72.3069 28.265 72.9167 28.265C73.1722 28.265 73.416 28.2413 73.6483 28.188C73.8806 28.1346 74.1419 28.0457 74.438 27.9153V28.8695C74.1651 28.994 73.898 29.0888 73.6367 29.1481C73.3812 29.2074 73.0851 29.237 72.7599 29.237Z" fill="#F79444"/>
<path d="M77.4517 14.3188H78.6885V15.7116H77.4517V14.3188ZM77.5736 18.4676H78.5666V29.0468H77.5736V18.4676Z" fill="#F79444"/>
<path d="M81.4351 18.4678H82.5964L86.516 27.909L90.4763 18.4678H91.597L86.9399 29.1299H86.0863L81.4351 18.4678Z" fill="#F79444"/>
<path d="M98.7044 29.2963C98.025 29.2963 97.3746 29.1659 96.7591 28.8992C96.1436 28.6384 95.5978 28.265 95.1274 27.779C94.657 27.2931 94.2912 26.7122 94.0183 26.0366C93.7454 25.3609 93.6118 24.6023 93.6118 23.7785V23.737C93.6118 22.9784 93.7396 22.2613 93.9893 21.5915C94.239 20.9218 94.5874 20.3351 95.0287 19.8372C95.47 19.3394 95.9868 18.9482 96.5849 18.6519C97.183 18.3615 97.8334 18.2192 98.536 18.2192C99.2677 18.2192 99.9238 18.3615 100.51 18.646C101.091 18.9304 101.59 19.3216 102.003 19.8195C102.415 20.3173 102.734 20.904 102.955 21.5738C103.181 22.2435 103.292 22.9725 103.292 23.7607C103.292 23.8556 103.292 23.9326 103.292 23.98C103.292 24.0274 103.286 24.0926 103.269 24.1756H94.6745C94.7151 24.8335 94.8603 25.4202 95.1042 25.9299C95.3481 26.4396 95.6558 26.8723 96.0217 27.2279C96.3875 27.5835 96.8056 27.8561 97.2759 28.0457C97.7463 28.2295 98.2341 28.3243 98.7509 28.3243C99.5638 28.3243 100.255 28.1643 100.818 27.8502C101.381 27.5301 101.881 27.139 102.316 26.6648L103.007 27.2871C102.479 27.8679 101.881 28.348 101.207 28.7273C100.528 29.1066 99.6974 29.2963 98.7044 29.2963ZM102.229 23.2629C102.189 22.7235 102.084 22.2079 101.916 21.716C101.747 21.2241 101.509 20.7914 101.201 20.4062C100.894 20.0269 100.516 19.7246 100.069 19.4935C99.6219 19.2683 99.0993 19.1497 98.5012 19.1497C97.9844 19.1497 97.5024 19.2505 97.0553 19.4579C96.6081 19.6654 96.2191 19.9498 95.8823 20.3173C95.5513 20.6848 95.2726 21.1174 95.0577 21.6212C94.8429 22.125 94.7093 22.6702 94.6687 23.251H102.229V23.2629Z" fill="#F79444"/>
<path d="M106.416 14.5264H111.578C112.362 14.5264 113.076 14.6271 113.721 14.8286C114.366 15.0301 114.917 15.3205 115.388 15.6999C115.858 16.0792 116.218 16.5415 116.473 17.0867C116.729 17.632 116.857 18.2602 116.857 18.9655V19.007C116.857 19.7656 116.706 20.4412 116.41 21.0161C116.113 21.5969 115.707 22.0829 115.202 22.4682C114.691 22.8534 114.104 23.1438 113.436 23.3394C112.763 23.535 112.054 23.6298 111.311 23.6298H107.467V29.0409H106.41V14.5264H106.416ZM111.375 22.6578C112.037 22.6578 112.641 22.5749 113.187 22.4089C113.727 22.243 114.191 22 114.58 21.6918C114.969 21.3777 115.266 20.9983 115.486 20.5538C115.701 20.1093 115.811 19.6174 115.811 19.0722V19.0307C115.811 18.4439 115.707 17.9342 115.498 17.4957C115.289 17.0571 114.993 16.6896 114.615 16.3992C114.238 16.1088 113.779 15.8836 113.251 15.7295C112.722 15.5754 112.142 15.4983 111.503 15.4983H107.479V22.6578H111.375Z" fill="#8DC63F"/>
<path d="M119.911 13.9043H120.904V29.0471H119.911V13.9043Z" fill="#8DC63F"/>
<path d="M127.977 29.2959C127.489 29.2959 127.007 29.2248 126.531 29.0885C126.055 28.9521 125.631 28.7447 125.254 28.4662C124.876 28.1876 124.568 27.8438 124.33 27.429C124.092 27.0141 123.976 26.5281 123.976 25.9769V25.9354C123.976 25.3843 124.086 24.8923 124.313 24.4656C124.534 24.0389 124.841 23.6774 125.236 23.387C125.631 23.0965 126.101 22.8773 126.659 22.7232C127.216 22.5691 127.832 22.492 128.511 22.492C129.243 22.492 129.87 22.5335 130.398 22.6165C130.927 22.6995 131.444 22.8121 131.943 22.9484V22.492C131.943 21.4193 131.641 20.6132 131.037 20.0798C130.433 19.5464 129.597 19.2738 128.529 19.2738C127.89 19.2738 127.309 19.3509 126.781 19.5109C126.252 19.6709 125.753 19.8724 125.277 20.1213L124.911 19.2264C125.48 18.9419 126.055 18.7167 126.641 18.5507C127.222 18.3789 127.872 18.2959 128.593 18.2959C130.015 18.2959 131.107 18.6811 131.868 19.4575C132.57 20.1747 132.924 21.1704 132.924 22.4446V29.041H131.949V27.2749C131.775 27.5238 131.56 27.7668 131.31 28.0098C131.06 28.2528 130.77 28.4662 130.445 28.6499C130.12 28.8336 129.748 28.9877 129.336 29.1062C128.918 29.2366 128.465 29.2959 127.977 29.2959ZM128.041 28.3239C128.569 28.3239 129.069 28.2469 129.545 28.0868C130.021 27.9268 130.433 27.7075 130.793 27.429C131.153 27.1445 131.438 26.8067 131.647 26.4037C131.856 26.0066 131.96 25.5621 131.96 25.082V23.8848C131.525 23.7722 131.02 23.6655 130.433 23.5648C129.853 23.464 129.185 23.4107 128.442 23.4107C127.344 23.4107 126.502 23.6359 125.91 24.0804C125.323 24.5249 125.027 25.1235 125.027 25.8643V25.9058C125.027 26.291 125.108 26.6348 125.271 26.9311C125.434 27.2275 125.654 27.4764 125.933 27.6838C126.212 27.8913 126.531 28.0513 126.897 28.158C127.269 28.2706 127.646 28.3239 128.041 28.3239Z" fill="#8DC63F"/>
<path d="M136.496 18.4681H137.489V20.4417C137.843 19.8194 138.313 19.2919 138.911 18.8652C139.509 18.4385 140.282 18.2251 141.228 18.2251C141.879 18.2251 142.459 18.3318 142.976 18.5451C143.493 18.7585 143.928 19.0608 144.288 19.446C144.648 19.8312 144.921 20.2935 145.101 20.8269C145.287 21.3603 145.374 21.9412 145.374 22.5812V29.0532H144.381V22.7709C144.381 21.6804 144.097 20.8032 143.528 20.1454C142.959 19.4875 142.146 19.1615 141.089 19.1615C140.572 19.1615 140.102 19.2563 139.666 19.4401C139.231 19.6238 138.853 19.8846 138.528 20.2165C138.203 20.5484 137.947 20.9455 137.767 21.4078C137.581 21.87 137.494 22.3797 137.494 22.9309V29.0532H136.501V18.4681H136.496Z" fill="#8DC63F"/>
<path d="M153.335 29.2963C152.656 29.2963 152.006 29.1659 151.39 28.8992C150.774 28.6384 150.229 28.265 149.758 27.779C149.288 27.2931 148.922 26.7122 148.649 26.0366C148.376 25.3609 148.243 24.6023 148.243 23.7785V23.737C148.243 22.9784 148.37 22.2613 148.62 21.5915C148.87 20.9218 149.218 20.3351 149.66 19.8372C150.101 19.3394 150.618 18.9482 151.216 18.6519C151.814 18.3615 152.464 18.2192 153.167 18.2192C153.899 18.2192 154.555 18.3615 155.141 18.646C155.722 18.9304 156.221 19.3216 156.634 19.8195C157.046 20.3173 157.365 20.904 157.586 21.5738C157.812 22.2435 157.923 22.9725 157.923 23.7607C157.923 23.8556 157.923 23.9326 157.923 23.98C157.923 24.0274 157.917 24.0926 157.899 24.1756H149.305C149.346 24.8335 149.491 25.4202 149.735 25.9299C149.979 26.4396 150.287 26.8723 150.653 27.2279C151.018 27.5835 151.436 27.8561 151.907 28.0457C152.377 28.2295 152.865 28.3243 153.382 28.3243C154.195 28.3243 154.886 28.1643 155.449 27.8502C156.012 27.5301 156.512 27.139 156.947 26.6648L157.638 27.2871C157.11 27.8679 156.512 28.348 155.838 28.7273C155.159 29.1066 154.328 29.2963 153.335 29.2963ZM156.86 23.2629C156.819 22.7235 156.715 22.2079 156.546 21.716C156.378 21.2241 156.14 20.7914 155.832 20.4062C155.524 20.0269 155.147 19.7246 154.7 19.4935C154.253 19.2683 153.73 19.1497 153.132 19.1497C152.615 19.1497 152.133 19.2505 151.686 19.4579C151.239 19.6654 150.85 19.9498 150.513 20.3173C150.182 20.6848 149.903 21.1174 149.689 21.6212C149.474 22.125 149.34 22.6702 149.3 23.251H156.86V23.2629Z" fill="#8DC63F"/>
<path d="M164.276 29.237C163.869 29.237 163.492 29.1837 163.137 29.0711C162.783 28.9585 162.475 28.7866 162.214 28.5436C161.947 28.3006 161.744 27.9983 161.593 27.6309C161.442 27.2634 161.372 26.8308 161.372 26.3329V19.4046H159.868V18.4681H161.372V15.084H162.365V18.4681H166V19.4046H162.365V26.2144C162.365 26.973 162.557 27.5064 162.946 27.8087C163.335 28.1109 163.828 28.265 164.438 28.265C164.694 28.265 164.938 28.2413 165.17 28.188C165.402 28.1346 165.663 28.0457 165.96 27.9153V28.8695C165.687 28.994 165.419 29.0888 165.158 29.1481C164.897 29.2074 164.601 29.237 164.276 29.237Z" fill="#8DC63F"/>
<path d="M3.53055 8.06011C3.53055 7.63931 3.54797 7.22444 3.57701 6.80957C1.33557 9.76701 0 13.4712 0 17.5014C0 19.9195 0.487771 22.225 1.35299 24.3171C3.53055 22.7999 6.05653 21.7746 8.77993 21.3893C5.53391 17.9163 3.53055 13.2223 3.53055 8.06011Z" fill="#95C03D"/>
<path d="M17.1417 0C14.6912 0 12.3627 0.527479 10.2548 1.47575C10.127 1.53502 10.0225 1.63578 9.96443 1.76024C8.91339 3.92349 8.37916 6.40086 8.55337 9.02048C9.02372 16.2274 14.848 21.9941 21.9265 22.2608C27.0249 22.4504 31.531 19.8427 34.1034 15.8184C34.1615 15.7236 34.1905 15.611 34.1789 15.4984C33.2034 6.78017 25.9506 0 17.1417 0Z" fill="#F39540"/>
<path d="M24.4409 27.3519C25.5732 28.6735 26.5139 30.1671 27.234 31.785C27.2514 31.8265 27.3095 31.8384 27.3385 31.8028L28.6741 30.4397C29.0689 30.0722 29.4522 29.6811 29.8122 29.278L29.818 29.2721C31.1304 27.8023 32.2046 26.0954 32.9653 24.2285C32.9885 24.1692 32.9189 24.1099 32.8666 24.1455C30.4103 25.8109 27.5533 26.9014 24.4815 27.2393C24.4293 27.2511 24.406 27.3163 24.4409 27.3519Z" fill="#8DC63F"/>
<path d="M11.2189 26.2969C8.53038 26.2969 6.04505 27.1622 4.00105 28.6261C3.97201 28.6498 3.9662 28.6913 3.98943 28.7209C4.14621 28.9106 4.303 29.0943 4.46559 29.278L4.4714 29.2839C4.83142 29.687 5.21467 30.0781 5.60954 30.4456L17.1419 42.2042L23.3726 35.8448C21.9558 30.3508 17.0548 26.2969 11.2189 26.2969Z" fill="#5CBCE4"/>
<path opacity="0.83" d="M17.1419 43.5441L16.5786 42.9692L14.6043 40.9541C12.3106 41.1971 10.6963 41.7601 10.6963 42.4121C10.6963 43.2892 13.5823 44.0004 17.1361 44.0004C20.6899 44.0004 23.5758 43.2892 23.5758 42.4121C23.5758 41.7542 21.9674 41.1971 19.6678 40.9541L17.6935 42.9692L17.1419 43.5441Z" fill="#D8D9D8"/>
</svg>
