<svg width="72" height="62" viewBox="0 0 72 62" fill="none" xmlns="http://www.w3.org/2000/svg">
<path fill-rule="evenodd" clip-rule="evenodd" d="M5.87184 55.8809C0.468165 51.6906 -0.358573 44.7365 0.113879 38.674C0.660153 35.8062 0.719227 35.2862 1.51649 31.9726C4.61696 20.3231 13.9331 3.57686 26.2759 0.664477C37.8657 -2.17361 48.7617 4.54269 57.3397 12.0317C57.3397 12.0317 57.3397 12.0317 57.5907 12.21C65.6814 19.9516 74.658 32.9979 71.2623 44.9743C67.6746 56.8764 48.6731 60.7844 38.4121 61.6165C28.7563 62.612 13.4163 61.988 5.87184 55.8809Z" fill="#A1BC51"/>
<path fill-rule="evenodd" clip-rule="evenodd" d="M45.8532 48.2781V17.5151H20.4441V48.2781H45.8532ZM47.7725 14.813H18.7315C17.7718 14.813 16.8121 15.3928 16.8121 16.1039V49.7112C16.8121 50.4223 17.7718 50.9912 18.7315 50.9912H47.7725C48.7469 50.9912 49.7066 50.4223 49.7066 49.7112V16.1039C49.6918 15.3819 48.7322 14.813 47.7725 14.813Z" fill="#7F973A"/>
<path fill-rule="evenodd" clip-rule="evenodd" d="M48.7764 51.2103V20.4473H23.3674V51.2103H48.7764ZM50.6958 17.7451H21.6399C20.6802 17.7451 19.7206 18.314 19.7206 19.0251V52.6215C19.7206 53.3326 20.6802 53.9015 21.6399 53.9015H50.6958C51.6555 53.9015 52.6299 53.3326 52.6299 52.6215V19.0251C52.6299 18.3249 51.6555 17.7451 50.6958 17.7451Z" fill="white"/>
<path d="M33.9932 40.3392C33.5455 40.3392 33.2022 40.2198 32.9634 39.9809C32.7246 39.7272 32.6052 39.3765 32.6052 38.9287V35.9287H29.6723C29.2394 35.9287 28.9036 35.8167 28.6648 35.5928C28.4409 35.3689 28.329 35.0406 28.329 34.6077C28.329 34.1749 28.4409 33.8465 28.6648 33.6227C28.9036 33.3988 29.2394 33.2868 29.6723 33.2868H32.6052V30.3987C32.6052 29.951 32.7246 29.6077 32.9634 29.3689C33.2022 29.1301 33.5529 29.0107 34.0156 29.0107C34.4634 29.0107 34.7992 29.1301 35.0231 29.3689C35.2619 29.6077 35.3813 29.951 35.3813 30.3987V33.2868H38.3142C38.747 33.2868 39.0754 33.3988 39.2993 33.6227C39.5381 33.8465 39.6575 34.1749 39.6575 34.6077C39.6575 35.0406 39.5381 35.3689 39.2993 35.5928C39.0754 35.8167 38.747 35.9287 38.3142 35.9287H35.3813V38.9287C35.3813 39.3765 35.2619 39.7272 35.0231 39.9809C34.7992 40.2198 34.4559 40.3392 33.9932 40.3392Z" fill="#7F973A"/>
<path d="M36.0832 41.6292C35.6354 41.6292 35.2922 41.5098 35.0533 41.271C34.8145 41.0173 34.6951 40.6665 34.6951 40.2187V37.2187H31.7623C31.3294 37.2187 30.9936 37.1068 30.7548 36.8829C30.5309 36.659 30.419 36.3306 30.419 35.8978C30.419 35.4649 30.5309 35.1366 30.7548 34.9127C30.9936 34.6888 31.3294 34.5769 31.7623 34.5769H34.6951V31.6888C34.6951 31.241 34.8145 30.8977 35.0533 30.6589C35.2922 30.4201 35.6429 30.3007 36.1056 30.3007C36.5534 30.3007 36.8892 30.4201 37.1131 30.6589C37.3519 30.8977 37.4713 31.241 37.4713 31.6888V34.5769H40.4042C40.837 34.5769 41.1654 34.6888 41.3893 34.9127C41.6281 35.1366 41.7475 35.4649 41.7475 35.8978C41.7475 36.3306 41.6281 36.659 41.3893 36.8829C41.1654 37.1068 40.837 37.2187 40.4042 37.2187H37.4713V40.2187C37.4713 40.6665 37.3519 41.0173 37.1131 41.271C36.8892 41.5098 36.5459 41.6292 36.0832 41.6292Z" fill="white"/>
</svg>
