<svg width="72" height="61" viewBox="0 0 72 61" fill="none" xmlns="http://www.w3.org/2000/svg">
<path fill-rule="evenodd" clip-rule="evenodd" d="M5.87189 54.9795C0.468218 50.8567 -0.358577 44.0001 0.113876 38.0499C0.660149 35.2283 0.719207 34.7166 1.51647 31.4564C4.61694 19.9946 13.9331 3.51828 26.2759 0.652824C37.8658 -2.13953 48.7617 4.48318 57.3397 11.8369C57.3397 11.8369 57.3397 11.8369 57.5907 12.0123C65.6814 19.6291 74.658 32.4652 71.2623 44.2486C67.6746 55.959 48.6731 59.804 38.4121 60.6227C28.7415 61.6022 13.4016 60.9882 5.87189 54.9795Z" fill="#A1BC51"/>
<path fill-rule="evenodd" clip-rule="evenodd" d="M33.2299 16.9973C37.0981 16.9973 40.3462 20.0528 40.3462 24.044C40.3462 27.8451 37.0981 30.886 33.2299 30.886C29.1845 30.886 26.1136 27.8451 26.1136 24.044C26.1283 20.0528 29.1845 16.9973 33.2299 16.9973ZM33.2299 12.436C39.5785 12.436 44.7607 17.5675 44.7607 24.044C44.7607 30.3158 39.5785 35.4619 33.2299 35.4619C26.8813 35.4619 21.4924 30.3158 21.4924 24.044C21.4924 17.5675 26.8961 12.436 33.2299 12.436ZM33.2299 16.4417C37.2753 16.4417 40.7448 19.8774 40.7448 24.044C40.7448 28.0351 37.2753 31.4708 33.2299 31.4708C28.9926 31.4708 25.7149 28.0351 25.7149 24.044C25.7297 19.8627 29.0073 16.4417 33.2299 16.4417ZM33.2299 7.68457L34.5734 9.58512L35.7398 7.88924L36.8766 9.97986L38.2202 8.44479L38.9879 10.7401L40.7301 9.58512L41.0992 11.8658L42.8413 10.9301V13.2108L44.7459 12.4506L44.3768 14.9213L46.4881 14.3658L45.7204 16.6464H47.8316L46.6653 18.737L48.7765 18.9125L47.4625 20.8276L49.3671 21.3978L47.6545 23.0937L49.5886 24.044L47.6545 25.3744L49.3671 26.5147L47.2558 27.655L48.7913 28.9854L46.4881 29.7456L47.8316 31.2807L45.3217 31.6462L46.4881 33.5614H43.9782L44.7459 35.4619L42.4427 35.0818L42.8413 36.997L40.5086 36.4122L40.7301 38.5028L38.3973 37.3478L38.2202 39.4385L36.2861 37.918L35.7398 40.0086L33.9976 38.2981L33.2299 40.1987L31.6944 38.2981L30.528 40.0086L29.5831 37.918L28.0181 39.4385L27.2652 37.1724L25.7297 38.5028L25.3606 36.0321L23.6184 36.9824V34.6871L21.5072 35.4473L21.9058 32.9766L19.9717 33.5467L20.7394 31.2661H18.6282L19.5731 29.1755L17.6685 28.9854L19.012 27.0849L17.0779 26.5147L18.6134 24.8188L16.8712 24.044L18.8053 22.5089L17.0779 21.3832L19.1892 20.2282L17.6685 18.8978L19.9717 18.1376L18.6282 16.6172L20.9314 16.2371L19.9865 14.3365H22.2897L21.5219 12.4213L24.0318 12.8161L23.6332 10.9009L25.9364 11.4857L25.7592 9.5705L27.8705 10.5208L28.0477 8.43017L30.1589 9.96523L30.5576 7.87462L32.2702 9.5705L33.2299 7.68457ZM33.2299 11.2956C40.1543 11.2956 45.9271 16.9973 45.9271 24.044C45.9271 30.886 40.169 36.6022 33.2299 36.6022C26.1136 36.6022 20.5327 30.886 20.5327 24.044C20.5475 16.9973 26.1283 11.2956 33.2299 11.2956ZM24.5929 36.7777L18.6134 50.681L22.6588 49.1605L24.3714 55.8125L30.3509 39.8478L29.3764 38.3128L28.0329 39.6431L27.2652 37.5525L25.7297 38.6929L25.1539 36.4122L24.5929 36.7777ZM41.8817 36.997L47.8612 51.0611L43.8158 49.526L42.1031 56.0025L36.1237 40.0233L36.5223 38.3128L38.4269 39.6431L38.6483 37.7426L40.7596 38.6929V36.7777L41.8817 36.997Z" fill="#7F973A"/>
<path fill-rule="evenodd" clip-rule="evenodd" d="M36.1679 20.9304C40.0361 20.9304 43.2842 23.9859 43.2842 27.977C43.2842 31.7928 40.0361 34.819 36.1679 34.819C32.1225 34.819 29.0515 31.7781 29.0515 27.977C29.0515 23.9713 32.1225 20.9304 36.1679 20.9304ZM36.1679 16.3544C42.5165 16.3544 47.6987 21.4859 47.6987 27.9624C47.6987 34.2343 42.5165 39.3804 36.1679 39.3804C29.8193 39.3804 24.4304 34.2343 24.4304 27.9624C24.4304 21.4859 29.8193 16.3544 36.1679 16.3544ZM36.1679 20.3602C40.2132 20.3602 43.6828 23.7958 43.6828 27.9624C43.6828 31.9536 40.2132 35.3892 36.1679 35.3892C31.9306 35.3892 28.6529 31.9536 28.6529 27.9624C28.6529 23.7958 31.9306 20.3602 36.1679 20.3602ZM36.1679 11.603L37.5114 13.5036L38.6778 11.8077L39.8146 13.8983L41.1581 12.3633L41.9259 14.6585L43.6681 13.5036L44.0372 15.7842L45.7793 14.8486V17.1293L47.6839 16.369L47.3148 18.8398L49.4261 18.2842L48.6583 20.5649H50.7696L49.6032 22.6555L51.7145 22.8309L50.4005 24.7461L52.3051 25.3309L50.5924 27.0268L52.5413 27.9624L50.6072 29.2928L52.3198 30.4331L50.2086 31.5735L51.744 32.9039L49.4408 33.6641L50.7844 35.1992L48.2745 35.5646L49.4408 37.4798H46.9309L47.6987 39.3804L45.3955 39.0003L45.7941 40.9154L43.4614 40.3453L43.6681 42.4359L41.3353 41.2809L41.1581 43.3715L39.224 41.8511L38.6778 43.9417L36.9356 42.2312L36.1679 44.1318L34.6324 42.2312L33.466 43.9563L32.5211 41.8657L30.9561 43.3862L30.1884 41.1055L28.6529 42.4359L28.2838 39.9652L26.5416 40.9154V38.6202L24.4304 39.3804L24.829 36.9096L22.8949 37.4798L23.6626 35.1992H21.5514L22.4963 33.1085L20.5917 32.9039L21.9352 31.0033L20.0011 30.4185L21.5366 28.7226L19.7944 27.9624L21.7285 26.4274L20.0159 25.3016L22.1272 24.1467L20.5917 22.8163L22.8949 22.0561L21.5514 20.5356L23.8546 20.1555L22.9097 18.255H25.2129L24.4451 16.3398L26.955 16.7345L26.5564 14.8193L28.8596 15.4041L28.6824 13.489L30.7937 14.4392L30.9709 12.3486L33.0822 13.8837L33.466 11.8077L35.1787 13.5036L36.1679 11.603ZM36.1679 15.2141C43.0923 15.2141 48.865 20.9157 48.865 27.9624C48.865 34.8044 43.107 40.5207 36.1679 40.5207C29.0516 40.5207 23.4707 34.819 23.4707 27.9624C23.4707 20.9304 29.0516 15.2141 36.1679 15.2141ZM27.5161 40.7108L21.5366 54.6141L25.582 53.0936L27.2946 59.7456L33.2741 43.7809L32.2849 42.2458L30.9414 43.5762L30.1736 41.4856L28.6382 42.6259L28.0624 40.3453L27.5161 40.7108ZM44.8049 40.9154L50.7844 54.9796L46.739 53.4445L45.0264 59.921L39.0469 43.9417L39.4455 42.2312L41.3501 43.5616L41.5715 41.661L43.6828 42.5967V40.6815L44.8049 40.9154Z" fill="white"/>
<path d="M36 22L37.3471 26.1459H41.7063L38.1796 28.7082L39.5267 32.8541L36 30.2918L32.4733 32.8541L33.8204 28.7082L30.2937 26.1459H34.6529L36 22Z" fill="#A1BC51"/>
</svg>
