<svg width="72" height="66" viewBox="0 0 72 66" fill="none" xmlns="http://www.w3.org/2000/svg">
<g id="Group">
<g id="Group_2">
<path id="Vector" fill-rule="evenodd" clip-rule="evenodd" d="M45.0489 64.6913C40.441 65.7074 35.2485 64.6913 30.9329 63.107C25.8952 61.3849 20.995 58.2162 16.6794 54.8925C-11.5526 33.4006 -1.75224 15.2324 29.6434 4.40036C39.4438 0.80116 59.1649 -3.83131 67.0912 5.41641C72.9886 12.3393 72.7135 23.4469 70.7018 31.6613C67.7961 44.3532 59.5947 61.3676 45.0489 64.6913Z" fill="#A1BC51"/>
</g>
<g id="Group_3">
<g id="Group_4">
<path id="Vector_2" fill-rule="evenodd" clip-rule="evenodd" d="M30.8125 40.978H41.1287V56.6664H30.8125V40.978ZM52.5625 47.9353V39.8759C54.1271 38.5154 55.9152 36.7244 56.3795 36.2767C56.8093 35.3812 57.0157 33.1424 57.0157 32.9186C57.0157 32.2642 56.5858 31.782 56.156 31.5753C55.8981 31.5753 55.8981 31.5753 55.8981 31.5753C55.4682 31.5753 54.7977 32.0058 54.7977 32.6775C54.7977 33.573 54.5398 34.7096 54.3335 35.1401C54.1271 35.3812 52.9751 36.5005 51.8747 37.396H48.2985C47.1637 36.5005 46.0461 35.3812 45.8398 35.1401C45.5819 34.7096 45.3755 33.573 45.3755 32.6775C45.3755 32.0058 44.705 31.5753 44.2752 31.5753C43.5874 31.782 43.1404 32.2642 43.1404 32.9186C43.1404 33.1424 43.3811 35.3812 43.8109 36.2767C44.2752 36.7244 45.8398 38.2915 47.4216 39.6348V47.9353H52.5625ZM50.1038 36.9311C51.4621 36.9311 52.5625 35.8289 52.5625 34.2446C52.5625 32.9013 51.4621 31.782 50.1038 31.782C48.5392 31.782 47.4216 32.9186 47.4216 34.2446C47.4216 35.8289 48.522 36.9311 50.1038 36.9311ZM50.3101 47.6942H50.1038C49.8803 47.6942 49.8803 47.6942 49.6396 47.6942V45.2316H50.3101V47.6942ZM21.8546 47.0226V35.8289C23.8835 34.0379 26.3594 31.5753 27.0299 30.6798C27.4598 29.5605 27.924 26.8568 27.924 26.1851C27.924 25.2896 27.2534 24.6352 26.5657 24.6352C26.3422 24.6352 26.3422 24.6352 26.3422 24.6352C25.6716 24.6352 24.9839 25.0658 24.7775 25.9613C24.7775 27.0806 24.5712 28.8888 24.107 29.3194C23.9007 29.7843 22.5424 31.1104 20.9606 32.4708H15.5961C14.2378 31.1104 12.6732 29.7843 12.4497 29.3194C12.1918 28.8888 11.7791 27.0806 11.7791 25.9613C11.7791 25.0658 11.1086 24.6352 10.2145 24.6352C10.2145 24.6352 10.2145 24.6352 10.0082 24.6352C9.33765 24.6352 8.6499 25.2896 8.6499 26.1851C8.85623 26.8395 9.07974 29.5432 9.7503 30.6798C10.2145 31.5753 12.4669 33.8141 14.4614 35.6051V47.0226H21.8546ZM18.072 31.782C20.0665 31.782 21.6483 30.2321 21.6483 28.2C21.6483 26.1851 20.0837 24.618 18.072 24.618C16.2495 24.618 14.4614 26.1679 14.4614 28.2C14.4614 30.2321 16.2495 31.782 18.072 31.782ZM18.5019 46.7987C18.5019 46.7987 18.5019 46.7987 18.2955 46.7987C18.0892 46.7987 17.8313 46.7987 17.625 46.7987V43.4406H18.5191V46.7987H18.5019ZM42.0228 39.8759V22.1726C45.3756 19.245 49.4161 15.6631 50.0866 14.3026C50.9807 12.3049 51.6512 8.05135 51.6512 7.15585C51.6512 5.79539 50.7572 4.69324 49.3989 4.45215C49.3989 4.45215 49.3989 4.45215 49.1925 4.45215C48.0578 4.45215 46.9402 5.34764 46.9402 6.69089C46.7339 8.70575 46.2696 11.1856 45.8398 12.0983C45.3756 12.7527 43.1232 14.9914 40.6645 17.0063H32.6007C30.142 14.9914 27.924 12.7527 27.4598 12.0983C27.0299 11.1856 26.5657 8.72297 26.3594 6.69089C26.3594 5.34764 25.2246 4.45215 23.9007 4.45215C23.9007 4.45215 23.9007 4.45215 23.66 4.45215C22.5596 4.69324 21.442 5.79539 21.6655 7.15585C21.6655 8.05135 22.3361 12.3049 23.2301 14.3026C23.9007 15.6631 27.477 19.0212 30.6234 21.7077V39.8759H42.0228ZM36.4177 15.8697C39.5641 15.8697 42.0228 13.4071 42.0228 10.2729C42.0228 7.13863 39.5641 4.67602 36.4177 4.67602C33.2712 4.67602 30.8125 7.13863 30.8125 10.2729C30.8125 13.4071 33.2884 15.8697 36.4177 15.8697ZM13.1546 47.6942H23.4364V61.3678H13.1546V47.6942ZM21.6483 58.2335V59.5768H14.9428C14.9428 59.1462 15.1491 58.9224 15.1491 58.6813C15.3554 58.2335 15.6133 57.7858 16.0432 57.3553C16.2495 56.8903 16.9372 56.4598 17.6078 55.7881C18.7082 54.8926 19.3959 54.221 19.8602 53.7561C20.0665 53.3255 20.29 52.6539 20.29 52.2062C20.29 51.7584 20.0837 51.3107 19.8602 51.0868C19.3959 50.639 18.9661 50.639 18.5019 50.639C17.8313 50.639 17.4015 50.639 16.9372 51.0868C16.7309 51.3279 16.473 51.9823 16.473 52.4473H15.3726C15.3726 51.5518 15.6133 50.8801 16.2667 50.1913C16.7309 49.7608 17.625 49.5197 18.5191 49.5197C19.4131 49.5197 20.0837 49.7608 20.7714 50.4324C21.442 50.8801 21.6655 51.5518 21.6655 52.2234C21.6655 52.6711 21.442 53.1189 21.442 53.5666C21.1841 53.7733 20.9777 54.2382 20.5479 54.6688C20.0837 55.1337 19.6538 55.8054 18.7254 56.4942C17.8313 57.1486 17.4015 57.5963 17.1952 57.5963C16.9372 57.8202 16.9372 58.0441 16.7309 58.2508H21.6483V58.2335ZM44.9629 49.0547H55.2447V61.3678H44.9629V49.0547ZM46.9574 57.5619L48.0578 57.3553C48.2985 58.0097 48.522 58.4574 48.7283 58.9051C49.1925 59.129 49.4161 59.3529 50.0866 59.3529C50.5165 59.3529 50.9807 59.1462 51.4449 58.6813C51.8747 58.2335 52.0811 57.7858 52.0811 57.3553C52.0811 56.6664 51.8747 56.2014 51.4449 55.7881C51.187 55.5643 50.7744 55.3232 50.0866 55.3232C49.8631 55.3232 49.6224 55.3232 49.1925 55.3232L49.3989 54.4277C49.3989 54.4277 49.3989 54.4277 49.6052 54.4277C50.0694 54.4277 50.4993 54.221 50.9635 53.9799C51.4277 53.7561 51.6512 53.3255 51.6512 52.6367C51.6512 52.1889 51.4277 51.9478 51.187 51.5173C50.7572 51.2934 50.5165 51.2934 50.0866 51.2934C49.4161 51.2934 49.1925 51.2934 48.7283 51.5173C48.522 51.9478 48.2985 52.4128 48.2985 52.8606H46.9402C47.1465 51.9478 47.4044 51.2934 48.0406 50.8457C48.5048 50.3979 49.1754 50.1568 49.8631 50.1568C50.5165 50.1568 50.9635 50.3979 51.4277 50.3979C51.8576 50.8457 52.3218 51.0523 52.5281 51.5173C52.7344 51.9478 52.7344 52.1717 52.7344 52.8606C52.7344 53.0672 52.7344 53.5149 52.5281 53.9627C52.3218 54.2038 51.8576 54.4104 51.4277 54.6343C52.0639 54.8754 52.5281 55.0993 52.7516 55.547C53.2158 55.9948 53.2159 56.6664 53.2159 57.1142C53.2159 58.0097 52.9579 58.9052 52.3218 59.3529C51.6512 60.0417 50.9635 60.2484 50.0694 60.2484C49.1753 60.2484 48.5048 60.0417 47.817 59.5768C47.1637 59.1462 46.9574 58.2335 46.9574 57.5619ZM37.776 53.7388H36.6756V46.1271C36.4349 46.351 35.9534 46.5921 35.5408 46.7987C35.0765 47.2637 34.6467 47.2637 34.2169 47.4876V46.3682C34.853 45.9205 35.5408 45.7138 35.9706 45.2488C36.4348 44.8183 36.8991 44.3534 37.1054 43.9056H37.776V53.7388Z" fill="#7F973A"/>
</g>
</g>
<g id="Group_5">
<g id="Group_6">
<path id="Vector_3" fill-rule="evenodd" clip-rule="evenodd" d="M34.234 45.5928H44.5503V61.2811H34.234V45.5928ZM55.9668 52.5501V44.4906C57.5315 43.1301 59.3196 41.3392 59.7838 40.8914C60.2137 39.9959 60.42 37.7572 60.42 37.5333C60.42 36.8789 59.9902 36.4139 59.5603 36.1901C59.3024 36.1901 59.3024 36.1901 59.3024 36.1901C58.8726 36.1901 58.202 36.6206 58.202 37.2922C58.202 38.1877 57.9441 39.3243 57.7378 39.7548C57.5315 39.9787 56.3795 41.1153 55.2791 42.0108H51.7028C50.5508 41.1153 49.4504 39.9959 49.2441 39.7548C49.0034 39.3243 48.7799 38.1877 48.7799 37.2922C48.7799 36.6206 48.0921 36.1901 47.6623 36.1901C46.9917 36.3967 46.5275 36.8617 46.5275 37.5333C46.5275 37.7572 46.7682 39.9959 47.1981 40.8914C47.6623 41.3392 49.2269 42.9063 50.8087 44.2495V52.5501H55.9668ZM53.5081 41.563C54.8664 41.563 55.9668 40.4609 55.9668 38.8765C55.9668 37.5333 54.8664 36.4139 53.5081 36.4139C51.9435 36.4139 50.8259 37.5333 50.8259 38.8765C50.8259 40.4437 51.9435 41.563 53.5081 41.563ZM53.7317 52.3262H53.5253C53.319 52.3262 53.319 52.3262 53.0611 52.3262V49.8636H53.7488V52.3262H53.7317ZM25.2762 51.6374V40.4437C27.305 38.6527 29.7809 36.1901 30.4514 35.2946C30.8813 34.1752 31.3455 31.4715 31.3455 30.7999C31.3455 29.9044 30.6578 29.25 29.9872 29.25C29.7809 29.25 29.7809 29.25 29.7809 29.25C29.0932 29.25 28.4226 29.6805 28.2163 30.576C28.2163 31.6954 28.01 33.5036 27.5285 33.9341C27.3222 34.3991 25.9639 35.7251 24.3821 37.0856H19.0349C17.6766 35.7251 16.1119 34.3991 15.8884 33.9341C15.6305 33.5036 15.2179 31.6954 15.2179 30.576C15.2179 29.6805 14.5301 29.25 13.6533 29.25C13.6533 29.25 13.6532 29.25 13.4469 29.25C12.7764 29.25 12.0886 29.9044 12.0886 30.7999C12.2949 31.4543 12.5185 34.158 13.189 35.2946C13.6532 36.1901 15.9056 38.4288 17.9001 40.2026V51.6374H25.2762ZM21.4936 36.4139C23.488 36.4139 25.0698 34.864 25.0698 32.832C25.0698 30.8171 23.5052 29.25 21.4936 29.25C19.671 29.25 17.8829 30.7999 17.8829 32.832C17.8829 34.8468 19.671 36.4139 21.4936 36.4139ZM21.9234 51.4307C21.9234 51.4307 21.9234 51.4307 21.7171 51.4307C21.5107 51.4307 21.2528 51.4307 21.0465 51.4307V48.0726H21.9406V51.4307H21.9234ZM45.4443 44.4906V26.7874C48.7971 23.8598 52.8376 20.2778 53.5081 18.9173C54.4022 16.9197 55.0728 12.6661 55.0728 11.7706C55.0728 10.4101 54.1787 9.30799 52.8204 9.06689C52.8204 9.06689 52.8204 9.06689 52.6141 9.06689C51.4793 9.06689 50.3617 9.96239 50.3617 11.3056C50.1554 13.3205 49.6911 15.8003 49.2613 16.713C48.7971 17.3674 46.5447 19.6062 44.086 21.621H36.0222C33.5635 19.6062 31.3455 17.3674 30.8813 16.713C30.4514 15.8003 29.9872 13.3377 29.7809 11.3056C29.7809 9.96239 28.6461 9.06689 27.3222 9.06689C27.3222 9.06689 27.3222 9.06689 27.0815 9.06689C25.9811 9.29077 24.8635 10.4101 25.087 11.7706C25.087 12.6661 25.7576 16.9197 26.6517 18.9173C27.3222 20.2778 30.8985 23.6359 34.0449 26.3224V44.4906H45.4443ZM39.8392 20.5017C42.9856 20.5017 45.4443 18.0391 45.4443 14.9048C45.4443 11.7706 42.9856 9.30799 39.8392 9.30799C36.6927 9.30799 34.234 11.7706 34.234 14.9048C34.234 18.0218 36.6927 20.5017 39.8392 20.5017ZM16.559 52.3262H26.8408V65.9997H16.559V52.3262ZM25.0526 62.8483V64.1915H18.3471C18.3471 63.761 18.5534 63.5371 18.5534 63.296C18.7598 62.8483 19.0177 62.4005 19.4475 61.97C19.6538 61.505 20.3416 61.0745 21.0121 60.4029C22.1125 59.5074 22.8003 58.8358 23.2645 58.3708C23.4708 57.9403 23.6943 57.2686 23.6943 56.8209C23.6943 56.3731 23.488 55.9254 23.2645 55.7015C22.8003 55.2538 22.3704 55.2538 21.9062 55.2538C21.2356 55.2538 20.8058 55.2538 20.3416 55.7015C20.1353 55.9254 19.8773 56.597 19.8773 57.062H18.777C18.777 56.1665 19.0349 55.4949 19.671 54.806C20.1353 54.3755 21.0293 54.1344 21.9234 54.1344C22.8175 54.1344 23.488 54.3927 24.1758 55.0471C24.8463 55.4949 25.0698 56.1665 25.0698 56.8381C25.0698 57.2859 24.8635 57.7336 24.8635 58.1814C24.6056 58.4052 24.3993 58.8702 23.9694 59.2835C23.5052 59.7485 23.0754 60.4373 22.1469 61.1089C21.2528 61.7806 20.823 62.2283 20.6167 62.2283C20.376 62.435 20.376 62.6761 20.1525 62.8827H25.0526V62.8483ZM48.3672 53.6867H58.649V65.9997H48.3672V53.6867ZM50.3617 62.1939L51.4621 61.97C51.72 62.6244 51.9263 63.0721 52.1326 63.5199C52.5969 63.7438 52.8032 63.9676 53.491 63.9676C53.9208 63.9676 54.385 63.761 54.8492 63.296C55.2791 62.8483 55.4854 62.4005 55.4854 61.97C55.4854 61.2984 55.2791 60.8334 54.8492 60.4029C54.5913 60.1618 54.1787 59.9379 53.491 59.9379C53.2846 59.9379 53.0267 59.9379 52.5969 59.9379L52.8032 59.0424C52.8032 59.0424 52.8032 59.0424 53.0095 59.0424C53.4738 59.0424 53.9036 58.8358 54.3678 58.5947C54.832 58.3708 55.0384 57.9403 55.0384 57.2514C55.0384 56.8037 54.8321 56.5626 54.5742 56.1493C54.1443 55.9082 53.9036 55.9082 53.4738 55.9082C52.8032 55.9082 52.5797 55.9082 52.1155 56.1493C51.9091 56.5798 51.6856 57.0448 51.6856 57.4925H50.3273C50.5336 56.5798 50.7915 55.9254 51.4277 55.4777C51.8919 55.0299 52.5625 54.7888 53.2502 54.7888C53.8864 54.7888 54.3506 55.0127 54.8149 55.0127C55.2447 55.4604 55.7089 55.6671 55.9153 56.132C56.1216 56.5626 56.1216 56.7864 56.1216 57.4753C56.1216 57.6819 56.1216 58.1297 55.9153 58.5774C55.7089 58.8185 55.2447 59.0252 54.8149 59.2491C55.451 59.5074 55.9152 59.714 56.1388 60.1618C56.603 60.6095 56.603 61.2811 56.603 61.7289C56.603 62.6244 56.3451 63.5199 55.7089 63.9676C55.0212 64.6393 54.3506 64.8631 53.4566 64.8631C52.5625 64.8631 51.8919 64.6393 51.2042 64.1743C50.5852 63.761 50.3617 62.8483 50.3617 62.1939ZM41.1975 58.3708H40.0971V50.7591C39.8392 50.9829 39.375 51.2241 38.9623 51.4307C38.4981 51.8957 38.0682 51.8957 37.6384 52.1195V50.983C38.2746 50.5352 38.9623 50.3286 39.3922 49.8636C39.8564 49.4331 40.3206 48.9681 40.5269 48.5203H41.2147V58.3708H41.1975Z" fill="white"/>
</g>
</g>
</g>
</svg>
