<svg width="72" height="71" viewBox="0 0 72 71" fill="none" xmlns="http://www.w3.org/2000/svg">
<g id="Group">
<g id="Group_2">
<path id="Vector" fill-rule="evenodd" clip-rule="evenodd" d="M70.3723 25.8732C73.0427 36.5508 73.0427 50.6188 65.6328 59.3916C53.7839 73.4421 30.5282 73.4421 14.9655 66.2596C9.78383 63.9178 4.00087 60.545 1.04749 53.9741C-1.32228 48.8538 0.746848 42.2654 3.11662 37.2848C6.07 30.8537 11.1279 24.5451 15.8497 19.1451C22.0748 12.1198 34.808 1.14506 44.5877 0.113992C46.9575 -0.183095 49.3272 0.114015 51.3964 0.847995C63.2629 4.50042 68.0025 16.2091 70.3723 25.8732Z" fill="#A1BC51"/>
</g>
<g id="Group_3">
<g id="Group_4">
<path id="Vector_2" fill-rule="evenodd" clip-rule="evenodd" d="M47.0459 54.3061C48.443 54.3061 49.5749 55.442 49.5749 56.8051C49.5749 58.1682 48.443 59.077 47.0459 59.077C45.9141 59.077 44.7292 58.1682 44.7292 56.8051C44.7292 55.442 45.9141 54.3061 47.0459 54.3061ZM56.2597 51.108H52.5813C51.1842 49.7449 49.3449 48.8362 47.0282 48.8362C44.9768 48.8362 43.1376 49.7449 41.7405 51.108H24.2324C22.8707 49.7449 20.9961 48.8362 18.9446 48.8362C16.8578 48.8362 15.0186 49.7449 13.3916 51.108H9.23563C8.31601 51.108 7.39638 50.1993 7.39638 49.0634C7.39638 48.1547 8.31601 47.2459 9.23563 47.2459H56.2421C57.4093 47.2459 58.1167 48.1547 58.1167 49.0634C58.1344 50.1993 57.4446 51.108 56.2597 51.108ZM47.0459 60.8944C44.9945 60.8944 43.1553 59.077 43.1553 56.8051C43.1553 54.5333 44.9945 52.6983 47.0459 52.6983C49.3626 52.6983 51.2019 54.5158 51.2019 56.8051C51.2019 59.077 49.3626 60.8944 47.0459 60.8944ZM18.9623 60.8944C21.279 60.8944 22.8883 59.077 22.8883 56.8051C22.8883 54.5333 21.279 52.6983 18.9623 52.6983C16.6456 52.6983 14.8064 54.5158 14.8064 56.8051C14.8064 59.077 16.6456 60.8944 18.9623 60.8944ZM12.7195 16.7683H45.7019L53.5186 39.7314L43.5974 30.1896L46.1263 27.9178C46.816 27.0091 46.816 25.8731 46.1263 24.9644C44.2871 23.1469 33.0218 32.6886 35.763 35.4323C36.2051 35.6595 36.4527 35.8867 37.1247 35.8867C37.6022 35.8867 38.0797 35.6595 38.5218 35.4323L40.8385 32.9333L51.4494 43.4012H30.9173V40.675C30.9173 35.4323 22.3932 37.0401 18.4671 37.0401C18.2549 37.0401 18.025 36.8129 18.025 36.5857V25.4362C18.025 24.5275 17.07 23.6188 16.1504 23.6188C15.0186 23.6188 14.099 24.51 14.099 25.4362V36.5857C14.099 38.8576 16.1504 40.9197 18.4671 40.9197H26.9913V43.4187H12.7019V16.7683H12.7195ZM57.6569 43.5935L48.6553 16.7508H53.7308C56.2598 16.7508 56.2598 12.8887 53.7308 12.8887H9.04109C8.12148 12.8887 7.20185 13.7974 7.20185 14.7062C7.20185 15.8421 8.12148 16.7508 9.04109 16.7508H9.7308V43.3663H9.2533C6.01697 43.3663 3.48804 45.8653 3.48804 49.0459C3.48804 52.2265 6.01697 54.7255 9.2533 54.7255H11.0925C11.0925 55.4071 10.8803 56.0886 10.8803 56.7702C10.8803 61.1042 14.5588 64.7216 18.9623 64.7216C23.3305 64.7216 26.779 61.0867 26.779 56.7702C26.779 56.0886 26.7791 55.4071 26.5668 54.7255H39.4591C39.2292 55.4071 39.2292 56.0886 39.2292 56.7702C39.2292 61.1042 42.6778 64.7216 47.0459 64.7216C51.6794 64.7216 55.1279 61.0867 55.1279 56.7702C55.1279 56.0886 55.1279 55.4071 54.9157 54.7255H56.2774C59.5138 54.7255 62.0427 52.2265 62.0427 49.0459C62.0251 46.5644 60.2035 44.2925 57.6569 43.5935ZM19.1745 54.3061C20.3417 54.3061 21.4913 55.442 21.4913 56.8051C21.4913 58.1682 20.3594 59.077 19.1745 59.077C17.8128 59.077 16.6456 58.1682 16.6456 56.8051C16.6456 55.442 17.8128 54.3061 19.1745 54.3061Z" fill="#7F973A"/>
</g>
</g>
<g id="Group_5">
<g id="Group_6">
<path id="Vector_3" fill-rule="evenodd" clip-rule="evenodd" d="M50.5652 58.9894C51.9623 58.9894 53.0942 60.1253 53.0942 61.4884C53.0942 62.8515 51.9623 63.7603 50.5652 63.7603C49.4334 63.7603 48.2485 62.8515 48.2485 61.4884C48.2485 60.1428 49.4157 58.9894 50.5652 58.9894ZM59.7791 55.8088H56.1006C54.7035 54.4457 52.8643 53.537 50.5652 53.537C48.5138 53.537 46.6746 54.4457 45.2774 55.8088H27.7517C26.39 54.4457 24.5154 53.537 22.4639 53.537C20.3771 53.537 18.5379 54.4457 16.9286 55.8088H12.7726C11.853 55.8088 10.9334 54.9001 10.9334 53.7642C10.9334 52.8554 11.853 51.9467 12.7726 51.9467H59.7791C60.9463 51.9467 61.6537 52.8554 61.6537 53.7642C61.6537 54.9001 60.9463 55.8088 59.7791 55.8088ZM50.5652 65.5777C48.5138 65.5777 46.6746 63.7603 46.6746 61.4884C46.6746 59.2166 48.5138 57.3816 50.5652 57.3816C52.8819 57.3816 54.7212 59.1991 54.7212 61.4884C54.7035 63.7603 52.8819 65.5777 50.5652 65.5777ZM22.4639 65.5777C24.7807 65.5777 26.39 63.7603 26.39 61.4884C26.39 59.2166 24.7807 57.3816 22.4639 57.3816C20.1472 57.3816 18.308 59.1991 18.308 61.4884C18.3257 63.7603 20.1472 65.5777 22.4639 65.5777ZM16.2212 21.4516H49.2035L57.0202 44.4147L47.099 34.8729L49.6279 32.6011C50.3176 31.6749 50.3176 30.5564 49.6279 29.6477C47.7887 27.8302 36.5234 37.372 39.2646 40.1157C39.7067 40.3428 39.972 40.57 40.6263 40.57C41.1038 40.57 41.5813 40.3428 42.0234 40.1157L44.3401 37.6166L54.9511 48.0846H34.4189V45.3584C34.4189 40.1157 25.8948 41.7234 21.9688 41.7234C21.7565 41.7234 21.5266 41.4962 21.5266 41.2691V30.1195C21.5266 29.1933 20.5717 28.3021 19.652 28.3021C18.5202 28.3021 17.6006 29.1933 17.6006 30.1195V41.2691C17.6006 43.5409 19.652 45.603 21.9688 45.603H30.4929V48.102H16.2035V21.4516H16.2212ZM61.1762 48.2943L52.1745 21.4691H57.2501C59.779 21.4691 59.779 17.6069 57.2501 17.6069H12.5604C11.6408 17.6069 10.7212 18.5157 10.7212 19.4244C10.7212 20.5603 11.6408 21.4691 12.5604 21.4691H13.2501V48.0846H12.7726C9.53628 48.0846 7.00732 50.5836 7.00732 53.7816C7.00732 56.9622 9.53628 59.4612 12.7726 59.4612H14.6118C14.6118 60.1603 14.3996 60.8244 14.3996 61.5059C14.3996 65.8399 18.0781 69.4573 22.4816 69.4573C26.8498 69.4573 30.2983 65.8224 30.2983 61.5059C30.2983 60.8244 30.2983 60.1428 30.0861 59.4612H42.9784C42.7662 60.1603 42.7662 60.8244 42.7662 61.5059C42.7662 65.8399 46.2147 69.4573 50.5829 69.4573C55.2164 69.4573 58.6649 65.8224 58.6649 61.5059C58.6649 60.8244 58.6649 60.1428 58.4527 59.4612H59.8144C63.0508 59.4612 65.5797 56.9622 65.5797 53.7816C65.5444 51.2651 63.7051 48.9758 61.1762 48.2943ZM22.6938 58.9894C23.8611 58.9894 25.0106 60.1253 25.0106 61.4884C25.0106 62.8515 23.8787 63.7603 22.6938 63.7603C21.3321 63.7603 20.1649 62.8515 20.1649 61.4884C20.1472 60.1428 21.3321 58.9894 22.6938 58.9894Z" fill="white"/>
</g>
</g>
</g>
</svg>
