<svg width="72" height="72" viewBox="0 0 72 72" fill="none" xmlns="http://www.w3.org/2000/svg">
<g id="Group">
<g id="Group_2">
<path id="Vector" fill-rule="evenodd" clip-rule="evenodd" d="M70.3723 26.2183C73.0427 37.0414 73.0427 51.2601 65.6328 60.1379C53.7839 74.3566 30.5282 74.3566 14.9655 67.0882C9.78381 64.7184 4.00085 61.3051 1.04748 54.6379C-1.3223 49.4562 0.74691 42.7891 3.11669 37.7489C6.07006 31.2408 11.1279 24.8565 15.8497 19.3742C22.0748 12.2649 34.8079 1.15876 44.5877 0.115348C46.9575 -0.185296 49.3273 0.115425 51.3964 0.858191C63.263 4.5897 68.0202 16.4385 70.3723 26.2183Z" fill="#A1BC51"/>
</g>
<g id="Group_3">
<g id="Group_4">
<path id="Vector_2" fill-rule="evenodd" clip-rule="evenodd" d="M6.07006 49.9336C4.46074 50.1459 3.31123 51.7729 3.54113 53.3822C4.01863 54.9915 5.15048 55.9111 6.54759 55.9111C6.75981 55.9111 7.0073 55.9111 7.21952 55.9111L19.8997 53.3822C20.5894 53.3822 21.0315 52.9401 21.7389 52.2504L27.2565 45.5654L36.7003 50.411L30.263 60.7745C29.3434 62.1362 29.7855 64.2053 31.1649 64.895C31.8547 65.3548 32.3144 65.567 32.7919 65.567C33.9414 65.567 34.861 64.8951 35.5508 63.9754L43.6151 50.8532C44.0749 49.9336 44.3048 49.014 44.0749 48.3242C43.845 47.4046 43.1376 46.7326 42.4479 46.4851L33.9415 42.1168L42.9253 32.6732L49.3804 38.1908C50.0701 38.8805 50.7598 39.1105 51.4495 39.1105C52.1392 39.1105 52.829 38.8805 53.5187 38.1908L61.1232 31.0462C62.2727 30.1266 62.2727 28.075 61.3531 26.8902C60.6634 26.448 59.9736 25.9706 59.054 25.9706C58.3642 25.9706 57.6569 26.2181 57.2148 26.6779L51.4672 31.9657C51.4672 31.9657 36.9479 18.6314 34.4013 16.1024C33.7116 15.4127 33.0218 14.9529 32.3321 14.9529C32.1022 14.9529 31.8723 14.9529 31.6424 15.1828L20.1296 17.9416C18.5026 18.1538 17.6006 19.7809 18.0604 21.3902C18.2903 22.7696 19.4398 23.7069 20.8192 23.7069C21.0314 23.7069 21.279 23.7069 21.5089 23.4416L31.1826 21.3902C31.8724 22.0799 35.1087 25.5462 35.5685 25.9706C31.6424 30.3565 27.5041 34.7246 23.578 39.0928C23.3481 39.0928 23.3482 39.0928 23.3482 39.0928C22.8884 39.7648 22.6585 40.4722 22.6585 41.1619L17.5829 47.5992L6.07006 49.9336ZM55.853 17.694C55.853 13.9978 52.8643 11.0269 49.1682 11.0269C45.472 11.0269 42.4832 13.9978 42.4832 17.694C42.4832 21.3901 45.4897 24.3789 49.1682 24.3789C52.8643 24.3966 55.853 21.3901 55.853 17.694Z" fill="#7F973A"/>
</g>
</g>
<g id="Group_5">
<g id="Group_6">
<path id="Vector_3" fill-rule="evenodd" clip-rule="evenodd" d="M9.57165 54.6733C7.96232 54.9032 6.81282 56.5125 7.04272 58.1218C7.50253 59.7312 8.65207 60.6508 10.0492 60.6508C10.2614 60.6508 10.509 60.6508 10.7212 60.6508L23.4013 58.1218C24.091 58.1218 24.533 57.6797 25.2404 56.99L30.7758 50.305L40.2196 55.1508L33.7823 65.5141C32.8627 66.8758 33.3225 68.9449 34.6842 69.6523C35.3739 70.1121 35.8337 70.3243 36.3112 70.3243C37.4607 70.3243 38.3803 69.6524 39.07 68.7328L47.1344 55.6105C47.6118 54.6909 47.8241 53.7713 47.6119 53.0816C47.382 52.162 46.6746 51.49 45.9849 51.2424L37.4785 46.8742L46.4623 37.4305L52.9174 42.9482C53.6071 43.6202 54.2967 43.8678 54.9865 43.8678C55.6762 43.8678 56.366 43.6379 57.0557 42.9482L64.6601 35.8035C65.8097 34.8839 65.8097 32.8324 64.8901 31.6475C64.2004 31.2054 63.5106 30.7278 62.5909 30.7278C61.9012 30.7278 61.2116 30.9578 60.7517 31.4176L55.0042 36.7053C55.0042 36.7053 40.4849 23.371 37.9383 20.842C37.2486 20.1523 36.5588 19.6925 35.8691 19.6925C35.6392 19.6925 35.4093 19.6925 35.1793 19.9224L23.6489 22.6812C22.0219 22.9111 21.12 24.5205 21.5798 26.1298C21.8097 27.5092 22.9592 28.4465 24.3386 28.4465C24.5508 28.4465 24.7983 28.4465 25.0282 28.1989L34.7019 26.1475C35.3916 26.8549 38.6279 30.3034 39.0877 30.7455C35.1617 35.1314 31.0235 39.4996 27.0974 43.8678C26.8675 43.8678 26.8675 43.8678 26.8675 43.8678C26.4077 44.5575 26.1778 45.2472 26.1778 45.9546L21.1022 52.3918L9.57165 54.6733ZM59.3547 22.4513C59.3547 18.7552 56.3659 15.7842 52.6697 15.7842C48.9736 15.7842 45.9849 18.7552 45.9849 22.4513C45.9849 26.1475 48.9913 29.1363 52.6697 29.1363C56.3659 29.1363 59.3547 26.1475 59.3547 22.4513Z" fill="white"/>
</g>
</g>
</g>
</svg>
