<svg width="72" height="62" viewBox="0 0 72 62" fill="none" xmlns="http://www.w3.org/2000/svg">
<g id="Group">
<g id="Group_2">
<g id="Group_3">
<g id="Group_4">
<g id="Group_5">
<path id="Vector" fill-rule="evenodd" clip-rule="evenodd" d="M5.87193 55.8884C0.468249 51.6975 -0.358579 44.7275 0.113874 38.679C0.674911 35.8107 0.719221 35.2906 1.51649 31.9765C4.61695 20.3252 13.9331 3.5765 26.2759 0.663679C37.8658 -2.17484 48.7617 4.55733 57.3397 12.0177C57.3397 12.0177 57.3397 12.0178 57.5907 12.1961C65.6815 19.9388 74.658 32.9871 71.2623 44.9653C67.6746 56.8693 48.6731 60.7778 38.4121 61.61C28.7563 62.6206 13.4164 61.9816 5.87193 55.8884Z" fill="#A1BC51"/>
</g>
</g>
</g>
<g id="Group_6">
<g id="Group_7">
<path id="Vector_2" fill-rule="evenodd" clip-rule="evenodd" d="M57.6793 20.2807C57.6793 20.6522 57.4726 20.8603 57.2954 20.8603H55.7599C55.3613 20.8603 55.3613 20.6671 55.3613 20.4739L55.1841 11.1855C55.1841 10.7991 55.3613 10.606 55.568 10.606H57.1035C57.4873 10.606 57.4873 10.7992 57.4873 10.9924L57.6793 20.2807ZM54.6231 20.4739C54.6231 20.6671 54.4312 20.8603 54.2245 20.8603H52.689C52.3051 20.8603 52.3051 20.6671 52.3051 20.4739L52.0984 11.1855C52.0984 10.9923 52.3051 10.7992 52.4823 10.7992L54.0325 10.606C54.4164 10.7992 54.4164 10.7991 54.4164 11.1855L54.6231 20.4739ZM39.9918 21.0535C39.9918 21.4547 39.9918 21.4547 39.5932 21.4547L38.0577 21.633C37.6739 21.633 37.6739 21.4547 37.6739 21.0535L37.4819 11.9732C37.4819 11.5868 37.6739 11.3936 37.8806 11.3936H39.4161C39.7999 11.3936 39.7999 11.5868 40.0066 11.9732V21.0535H39.9918ZM36.9061 21.2467C36.9061 21.4399 36.7142 21.633 36.5075 21.633H34.972C34.5882 21.633 34.5882 21.4547 34.5882 21.2467L34.3962 11.9583C34.3962 11.5719 34.5882 11.3787 34.7949 11.3787H36.3303C36.7142 11.3787 36.7142 11.5719 36.7142 11.9583L36.9061 21.2467ZM9.57769 52.7824C18.6281 52.9608 23.2493 58.5784 38.0577 56.4532C42.6789 55.8587 47.684 55.8587 50.1643 55.8587C51.124 55.8587 51.9065 55.2791 52.0984 54.5064C52.689 51.4152 54.4164 48.1159 54.4164 41.7404C54.4164 34.3989 51.1387 29.3609 51.1387 23.1638C51.1387 20.8454 50.9616 19.1066 50.7549 17.5611C51.1388 17.5611 51.3307 17.353 51.1387 16.9815V14.6631C51.1387 14.2767 51.1388 14.0835 50.7549 14.0835L41.5273 14.2767C41.1435 14.2767 40.9368 14.4699 40.9368 14.8563V17.3678C41.1287 17.3678 41.1287 17.5759 41.3206 17.7543C41.8964 20.6522 42.8708 26.0766 40.7596 26.6562C33.4365 33.9977 39.9918 40.9677 36.3303 37.8616C30.7495 31.8725 20.5622 35.3501 20.5622 35.3501C17.6684 30.3269 11.1279 31.2781 9.40053 31.8577C9.01666 31.8577 8.82475 32.0509 8.82475 32.4373V52.1731C8.80999 52.5744 9.19383 52.7824 9.57769 52.7824Z" fill="#7F973A"/>
</g>
</g>
<g id="Group_8">
<g id="Group_9">
<path id="Vector_3" fill-rule="evenodd" clip-rule="evenodd" d="M60.6172 24.278C60.6172 24.6643 60.4253 24.8576 60.2334 24.8576H58.6979C58.2993 24.8576 58.2993 24.6495 58.2993 24.4563L58.1221 15.168C58.1221 14.7816 58.2993 14.5884 58.506 14.5884H60.0414C60.4253 14.5884 60.4253 14.7816 60.4253 14.9748L60.6172 24.278ZM57.5463 24.4563C57.5463 24.6495 57.3544 24.8576 57.1477 24.8576H55.6122C55.2283 24.8576 55.2283 24.6495 55.2283 24.4563L55.0216 15.168C55.0216 14.9748 55.2283 14.7816 55.4055 14.7816L56.9557 14.5884C57.3396 14.7816 57.3396 14.7816 57.3396 15.168L57.5463 24.4563ZM42.915 25.0359C42.915 25.4223 42.915 25.4223 42.5164 25.4223L40.9809 25.6006C40.5971 25.6006 40.5971 25.4223 40.5971 25.021L40.4051 15.9259C40.4051 15.5395 40.597 15.3463 40.8037 15.3463H42.3392C42.7231 15.3463 42.7231 15.5395 42.915 15.9259V25.0359ZM39.8441 25.2291C39.8441 25.4223 39.6522 25.6155 39.4455 25.6155H37.91C37.5261 25.6155 37.5261 25.4372 37.5261 25.2291L37.3342 15.9408C37.3342 15.5544 37.5261 15.3612 37.7328 15.3612H39.2683C39.6522 15.3612 39.6521 15.5544 39.6521 15.9408L39.8441 25.2291ZM12.5157 56.7649C21.5661 56.9432 26.1873 62.5608 40.9957 60.4356C45.6021 59.856 50.6219 59.856 53.1023 59.856C54.0767 59.856 54.8592 59.2764 55.0364 58.5037C55.627 55.4125 57.3544 52.1132 57.3544 45.7377C57.3544 38.3962 54.0767 33.3582 54.0767 27.1611C54.0767 24.8427 53.8996 23.1039 53.6929 21.5583C54.0767 21.5583 54.2834 21.3503 54.0767 20.9788V18.6604C54.0767 18.274 54.0767 18.0808 53.6929 18.0808L44.4653 18.274C44.0814 18.274 43.8895 18.4672 43.8895 18.8536V21.3651C44.0814 21.3651 44.0814 21.5732 44.2733 21.7516C44.8491 24.6495 45.8236 30.0739 43.7123 30.6535C36.3893 37.995 42.9445 44.965 39.283 41.8589C33.7022 35.8698 23.5149 39.3474 23.5149 39.3474C20.6212 34.3094 14.0954 35.2754 12.3533 35.8549C11.9694 35.8549 11.7775 36.0482 11.7775 36.4346V56.1704C11.748 56.5717 12.1318 56.7649 12.5157 56.7649Z" fill="white"/>
</g>
</g>
</g>
</g>
</svg>
