<svg width="21" height="22" viewBox="0 0 21 22" fill="none" xmlns="http://www.w3.org/2000/svg">
<g id="mdi:airplane-marker">
<path id="Vector" d="M13.738 10.0817C12.6758 10.8357 11.9519 11.9765 11.722 13.2587L10.336 10.6037L6.83497 14.0867L7.14097 16.3367L6.19597 17.2907L4.60297 14.4197L1.74097 12.8357L2.69497 11.8817L4.92697 12.1967L8.42797 8.68666L1.74097 5.19466L3.00997 3.92566L11.29 5.83366L14.791 2.33266C14.9157 2.2064 15.0642 2.10615 15.228 2.03773C15.3918 1.96931 15.5675 1.93408 15.745 1.93408C15.9224 1.93408 16.0982 1.96931 16.2619 2.03773C16.4257 2.10615 16.5742 2.2064 16.699 2.33266C17.221 2.86366 17.221 3.73666 16.699 4.24066L13.198 7.74166L13.738 10.0817ZM19.741 14.0867C19.741 16.4267 16.591 19.9367 16.591 19.9367C16.591 19.9367 13.441 16.4267 13.441 14.0867C13.441 12.3767 14.881 10.9367 16.591 10.9367C18.301 10.9367 19.741 12.3767 19.741 14.0867ZM17.671 14.1767C17.671 13.6367 17.131 13.0967 16.591 13.0967C16.051 13.0967 15.511 13.5467 15.511 14.1767C15.511 14.7167 15.961 15.2567 16.591 15.2567C17.221 15.2567 17.761 14.7167 17.671 14.1767Z" fill="#D07100"/>
</g>
</svg>
