<svg width="18" height="19" viewBox="0 0 18 19" fill="none" xmlns="http://www.w3.org/2000/svg">
<g id="Pin_alt_fill">
<path id="Subtract" fill-rule="evenodd" clip-rule="evenodd" d="M9.34853 13.9684C10.5212 13.3517 14.2499 11.0993 14.2499 7.3916C14.2499 4.49211 11.8994 2.1416 8.99988 2.1416C6.10038 2.1416 3.74988 4.49211 3.74988 7.3916C3.74988 11.0993 7.47854 13.3517 8.65123 13.9684C8.87069 14.0838 9.12907 14.0838 9.34853 13.9684ZM8.99977 9.6415C10.2424 9.6415 11.2498 8.63414 11.2498 7.3915C11.2498 6.14886 10.2424 5.1415 8.99977 5.1415C7.75713 5.1415 6.74977 6.14886 6.74977 7.3915C6.74977 8.63414 7.75713 9.6415 8.99977 9.6415Z" fill="#D07100"/>
<path id="Ellipse 40" d="M13.5468 13.0166C14.0075 13.3586 14.2501 13.7466 14.2501 14.1416C14.2501 14.5366 14.0075 14.9246 13.5468 15.2666C13.086 15.6086 12.4232 15.8927 11.6251 16.0902C10.827 16.2876 9.92169 16.3916 9.00012 16.3916C8.07856 16.3916 7.17322 16.2876 6.37512 16.0902C5.57702 15.8927 4.91427 15.6086 4.45349 15.2666C3.99271 14.9246 3.75012 14.5366 3.75012 14.1416C3.75012 13.7466 3.9927 13.3586 4.45349 13.0166" stroke="#D07100" stroke-width="1.74094" stroke-linecap="round"/>
</g>
</svg>
