<svg width="23" height="24" viewBox="0 0 23 24" fill="none" xmlns="http://www.w3.org/2000/svg">
<g id="Star_fill">
<path id="Star 1" d="M9.58788 7.54053C10.1851 6.05159 10.4838 5.30712 10.9689 5.20394C11.0965 5.17681 11.2283 5.17681 11.3559 5.20394C11.8411 5.30712 12.1397 6.05159 12.737 7.54053C13.0766 8.38726 13.2464 8.81063 13.5642 9.09859C13.6533 9.17935 13.7501 9.25129 13.8531 9.31338C14.2204 9.53474 14.6788 9.5758 15.5958 9.65792C17.1481 9.79694 17.9242 9.86645 18.1612 10.309C18.2103 10.4006 18.2437 10.4999 18.26 10.6026C18.3385 11.0984 17.768 11.6175 16.6268 12.6557L16.3099 12.944C15.7764 13.4294 15.5097 13.672 15.3554 13.9749C15.2628 14.1566 15.2008 14.3523 15.1717 14.5541C15.1232 14.8905 15.2013 15.2426 15.3575 15.9467L15.4134 16.1983C15.6935 17.4611 15.8336 18.0924 15.6587 18.4028C15.5017 18.6816 15.2123 18.86 14.8927 18.8753C14.5369 18.8923 14.0356 18.4837 13.0328 17.6667C12.3722 17.1284 12.0419 16.8592 11.6752 16.7541C11.3401 16.658 10.9847 16.658 10.6496 16.7541C10.283 16.8592 9.95264 17.1284 9.29201 17.6667C8.28929 18.4837 7.78793 18.8923 7.43211 18.8753C7.1125 18.86 6.82317 18.6816 6.66609 18.4028C6.49122 18.0924 6.63131 17.4611 6.91148 16.1983L6.9673 15.9467C7.12352 15.2426 7.20164 14.8905 7.15316 14.5541C7.12409 14.3523 7.06203 14.1566 6.96947 13.9749C6.81518 13.672 6.54843 13.4294 6.01492 12.944L5.69803 12.6557C4.55689 11.6175 3.98631 11.0984 4.06489 10.6026C4.08116 10.4999 4.11454 10.4006 4.16363 10.309C4.40064 9.86645 5.17677 9.79694 6.72903 9.65792C7.646 9.5758 8.10448 9.53474 8.47176 9.31338C8.57477 9.25129 8.67152 9.17935 8.76065 9.09859C9.07842 8.81063 9.24824 8.38726 9.58788 7.54053Z" fill="#F3CC40" stroke="#F3CC40" stroke-width="1.86038"/>
</g>
</svg>
